<svg width="24" height="22" viewBox="0 0 24 22" fill="none" xmlns="http://www.w3.org/2000/svg">
<path fill-rule="evenodd" clip-rule="evenodd" d="M20.996 17.9608C20.936 15.5908 20.038 13.6247 18.518 12.2347C18.9907 12.0531 19.4936 11.9628 20 11.9688C23 11.9688 24 14.7187 24 16.5947C24 17.3747 22.614 17.8288 20.996 17.9608ZM5.744 12.3488C4.234 13.7788 3.274 15.7487 3.05 17.9627C1.412 17.8387 0 17.3807 0 16.5947C0 14.7187 1 11.9688 4 11.9688C4.68 11.9688 5.258 12.1087 5.744 12.3507V12.3488ZM20 10.9688C19.2044 10.9688 18.4413 10.6527 17.8787 10.0901C17.3161 9.52746 17 8.7644 17 7.96875C17 7.1731 17.3161 6.41004 17.8787 5.84743C18.4413 5.28482 19.2044 4.96875 20 4.96875C20.7956 4.96875 21.5587 5.28482 22.1213 5.84743C22.6839 6.41004 23 7.1731 23 7.96875C23 8.7644 22.6839 9.52746 22.1213 10.0901C21.5587 10.6527 20.7956 10.9688 20 10.9688ZM4 10.9688C3.20435 10.9688 2.44129 10.6527 1.87868 10.0901C1.31607 9.52746 1 8.7644 1 7.96875C1 7.1731 1.31607 6.41004 1.87868 5.84743C2.44129 5.28482 3.20435 4.96875 4 4.96875C4.79565 4.96875 5.55871 5.28482 6.12132 5.84743C6.68393 6.41004 7 7.1731 7 7.96875C7 8.7644 6.68393 9.52746 6.12132 10.0901C5.55871 10.6527 4.79565 10.9688 4 10.9688ZM12 8.96875C10.9391 8.96875 9.92172 8.54732 9.17157 7.79718C8.42143 7.04703 8 6.02962 8 4.96875C8 3.90788 8.42143 2.89047 9.17157 2.14032C9.92172 1.39018 10.9391 0.96875 12 0.96875C13.0609 0.96875 14.0783 1.39018 14.8284 2.14032C15.5786 2.89047 16 3.90788 16 4.96875C16 6.02962 15.5786 7.04703 14.8284 7.79718C14.0783 8.54732 13.0609 8.96875 12 8.96875ZM12 10.9688C17.334 10.9688 19 14.4688 19 18.2188C19 21.9688 5 21.9688 5 18.2188C5 14.4688 6.666 10.9688 12 10.9688Z" fill="#0322DD"/>
</svg>
