<svg width="146" height="146" viewBox="0 0 146 146" fill="none" xmlns="http://www.w3.org/2000/svg">
<circle cx="76" cy="76" r="70" fill="url(#paint0_linear_101_2979)"/>
<circle cx="70" cy="70" r="70" fill="#F4F7FF"/>
<path fill-rule="evenodd" clip-rule="evenodd" d="M109.018 21.8791C109.073 21.2921 109.594 20.8601 110.181 20.9151C113.091 21.1871 108.731 24.9361 109.018 21.8791Z" stroke="#0322DD"/>
<path fill-rule="evenodd" clip-rule="evenodd" d="M124.852 31.1057C124.907 30.5187 125.428 30.0867 126.015 30.1417C128.925 30.4137 124.565 34.1627 124.852 31.1057Z" stroke="#0322DD"/>
<path fill-rule="evenodd" clip-rule="evenodd" d="M120.608 62.2113C120.663 61.6243 121.184 61.1923 121.771 61.2473C124.681 61.5193 120.322 65.2683 120.608 62.2113Z" stroke="#0322DD"/>
<path fill-rule="evenodd" clip-rule="evenodd" d="M19.7082 92.3269C19.9172 92.0349 20.1192 91.7439 20.2822 91.4739C20.3622 91.3419 20.4372 91.2079 20.4782 91.1169L20.5172 91.0319C20.5652 91.0579 20.8582 91.1039 20.9922 91.1129C21.0522 91.1269 21.1142 91.1329 21.1792 91.1319L21.2752 91.1249L21.3242 91.1179L21.3302 91.1169C21.3502 91.1139 21.1822 91.1329 21.2552 91.1249L21.2642 91.1259L21.2812 91.1269C21.5012 91.1369 21.6162 90.9499 21.5262 91.0849C21.4882 91.1629 21.4692 91.4779 21.5532 91.8439C21.5632 91.8899 21.5782 91.9179 21.5892 91.9769L21.6042 92.0569L21.6022 92.0579L21.5892 92.0609C21.5892 92.0609 21.5662 92.0639 21.5392 92.0759C21.4962 92.0889 21.4392 92.1109 21.3742 92.1419C21.1192 92.2569 20.8122 92.4339 20.5122 92.6199L20.0552 92.9099L19.4312 93.3329L17.7642 94.5019C17.2202 94.8709 16.6662 95.2489 16.2042 95.4779C15.7402 95.7109 15.3592 95.8259 15.0692 95.8529L14.4582 95.8829C14.3222 95.8709 14.1912 95.8549 14.0262 95.7959C13.8532 95.7439 13.6232 95.5399 13.4992 95.3579C13.2452 94.9739 13.2732 94.6769 13.2822 94.3479C13.3252 93.9569 13.4542 93.5069 13.7412 92.9449C14.0022 92.3979 14.5002 91.7179 14.9812 91.0739L16.4332 89.2479L17.3432 88.1199C17.9342 87.3659 18.5042 86.6029 18.9812 85.8189C19.4432 85.0519 19.8522 84.1809 19.8162 83.5459C19.8152 83.3729 19.7612 83.2469 19.7082 83.1199L19.5282 82.6939L20.1852 82.7999C20.2212 82.8059 20.2662 82.7849 20.2802 82.7379C20.2672 82.7449 20.2662 82.8139 20.2962 82.8279C20.3322 83.0079 20.5232 83.1919 20.6302 83.3189C20.6182 83.3299 20.5782 83.3689 20.5292 83.4299C20.4372 83.5409 20.3342 83.6829 20.2342 83.8259L19.6272 84.7319C19.2192 85.3499 18.8042 85.9749 18.3562 86.5839C17.6702 87.5019 16.9422 88.4359 15.9072 89.1889C15.3882 89.5559 14.7662 89.8799 14.0322 89.9829C13.3022 90.0969 12.4932 89.9039 11.9202 89.5029C11.2112 88.9579 11.7732 88.6629 12.4722 88.4859C12.8312 88.3689 13.1992 88.2299 13.4612 88.0329C13.7282 87.8369 13.9492 87.6399 14.3312 87.4179C15.1512 86.9289 15.9972 85.9599 16.7592 84.9629C17.1462 84.4549 17.5212 83.9239 17.9092 83.3699L18.5212 82.5139C18.6352 82.3609 18.7432 82.2139 18.9112 82.0209C18.9752 81.9439 19.1102 81.8029 19.2572 81.6759C19.3262 81.6199 19.4262 81.5509 19.5172 81.4989L19.6602 81.4239L19.7372 81.3889C19.8092 81.3629 19.8882 81.3399 19.9712 81.3239C20.3062 81.2539 20.6972 81.3099 20.9452 81.4529C21.2232 81.5979 21.4832 81.8819 21.6042 82.1479L21.5262 82.0019C21.9782 82.7569 21.9972 83.6049 21.8852 84.2159C21.7732 84.8479 21.5632 85.3689 21.3342 85.8479C20.8632 86.7879 20.2982 87.5759 19.7132 88.3279C19.0232 89.1909 18.3252 90.0649 17.6212 90.9459C17.4812 91.1239 17.3482 91.3029 17.2222 91.4899C17.1132 91.6769 16.9372 91.8749 16.9532 92.1349C17.0022 92.2949 17.1622 92.2559 17.2572 92.2039C17.6112 92.0379 17.9732 91.7799 18.4122 91.5019L19.0032 91.1139C19.2902 90.9259 19.5862 90.7409 19.8982 90.5609C20.2202 90.3829 20.5202 90.2049 20.9912 90.0599C21.0982 90.0239 21.2632 89.9939 21.4342 89.9809C21.5432 89.9779 21.6762 89.9929 21.7922 90.0159C21.9462 90.0599 22.1282 90.1439 22.2552 90.2639C22.5532 90.5579 22.5882 90.8429 22.6062 91.0489C22.6132 91.2629 22.5812 91.4079 22.5482 91.5409C22.3382 92.2139 22.0572 92.5899 21.7852 93.0219C21.5092 93.4359 21.2252 93.8249 20.9392 94.2079C20.3782 94.9609 19.7712 95.7459 19.2772 96.4399C19.1162 96.6619 18.9532 96.8939 18.8052 97.1439C18.6822 97.3879 18.4672 97.6789 18.5792 97.9679C18.7142 98.1779 18.9672 98.3039 19.2142 98.2569C19.4582 98.2189 19.6802 98.0909 19.8882 97.9509C20.0972 97.8079 20.2902 97.6399 20.4772 97.4669L21.5832 96.4059C22.1522 95.8879 22.8082 95.4819 23.4042 95.3239C23.6912 95.2449 24.0402 95.2179 24.3162 95.4419C24.5442 95.6659 24.6272 95.9099 24.7122 96.1979C24.7932 96.4829 24.8222 96.8479 24.8222 97.2469C24.8142 97.6419 24.7812 98.1169 24.7982 98.4459C24.8202 98.7239 24.8412 98.7899 24.8882 98.8969C24.9342 98.9959 25.0082 99.0809 25.1052 99.1249C25.3122 99.1909 25.3822 99.1579 25.7642 99.0719C26.4642 98.8969 27.0002 98.6779 27.3932 98.6179C27.7932 98.5589 28.0762 98.5979 28.3752 98.7739C28.5112 98.8509 28.6732 98.9149 28.7792 99.0069C29.1262 99.3049 28.6842 100.01 27.3962 100.661C26.9102 100.903 26.4132 101.104 25.7182 101.233C24.9342 101.369 23.8932 101.192 23.3282 100.484C23.0302 100.148 22.8462 99.7149 22.7472 99.2579C22.6922 99.0069 22.6762 98.8209 22.6622 98.6499L22.6402 98.4099C22.6192 98.3669 22.6052 98.3459 22.5892 98.3369C22.5492 98.3069 22.4892 98.4099 22.4982 98.4129C22.5142 98.4019 22.4792 98.4389 22.3702 98.5479L22.0832 98.8269L21.6632 99.2189C20.8972 99.9019 20.0642 100.473 19.3102 100.714C18.7282 100.906 18.2312 100.882 17.7192 100.758C17.2082 100.629 16.7412 100.256 16.3492 99.8429C16.1362 99.4729 15.9822 99.2179 15.9592 98.8669C15.9182 98.5349 15.9582 98.1489 16.1162 97.7069C16.2512 97.2739 16.5162 96.7929 16.7932 96.3249C16.9452 96.0899 17.0852 95.8519 17.2492 95.6199L17.6442 95.0509C18.3322 94.0929 19.0402 93.1899 19.6622 92.2999L19.7082 92.3269Z" fill="#0322DD"/>
<path fill-rule="evenodd" clip-rule="evenodd" d="M31.6639 103.154L23.7609 104.063L22.7709 104.172L22.1439 104.23C21.8049 104.255 21.6349 104.184 21.4529 104.175C20.7259 104.052 19.9939 104.039 19.2759 103.797C18.5539 103.604 17.8329 103.412 17.1489 103.066C16.8089 102.901 16.4469 102.783 16.1259 102.573L15.1609 101.956C13.9269 101.066 12.8169 99.9577 12.0479 98.6557C11.2389 97.3827 10.6779 95.9767 10.3729 94.5387C10.0469 93.1037 9.92087 91.6347 10.0499 90.1647C10.0589 89.7977 10.1269 89.4286 10.1839 89.0617C10.2299 88.6937 10.3059 88.3257 10.4149 87.9587C10.5059 87.5907 10.6099 87.2237 10.7719 86.8567L11.0789 86.0917C11.2449 85.8756 11.5219 85.6877 11.7139 85.5057C14.6369 83.0157 17.4649 80.4067 20.3169 77.8217C30.3799 68.6997 40.2319 59.2997 50.1459 49.9687C54.5279 45.8057 58.9349 41.6197 63.2829 37.4897C68.9019 32.2137 74.4699 26.8007 80.8009 22.2577C82.7829 20.8457 82.9109 21.6157 81.7139 23.3827C81.1159 24.2647 80.1849 25.3787 79.0249 26.6927C78.4399 27.3417 77.7839 28.0157 77.0689 28.7127C76.3629 29.4247 75.5939 30.1537 74.7659 30.8797C63.0829 41.2737 51.7869 52.2147 40.0849 62.9137C33.0939 69.3227 26.0519 76.2497 18.8029 82.7397C17.8039 83.6297 16.8159 84.5287 15.7939 85.3977L14.2719 86.7107L13.5109 87.3657L13.2979 87.5487C13.2439 87.5797 13.2439 87.6507 13.2139 87.7077C12.8129 88.6807 12.6059 89.9477 12.5849 91.1457C12.5809 92.3647 12.7659 93.5837 13.0979 94.7507C13.4369 95.9197 14.0109 96.9887 14.7009 97.9567C15.4339 98.8937 16.3339 99.6837 17.3669 100.282C17.8899 100.565 18.4459 100.804 19.0089 101.017L19.8889 101.26C20.1789 101.353 20.4759 101.426 20.7869 101.451L21.7059 101.575C21.8609 101.592 22.0159 101.626 22.0669 101.618L22.4839 101.573L24.4679 101.35C30.9829 100.605 37.4979 99.8057 43.9959 98.9367C53.8379 97.6157 63.7219 96.2157 73.4229 94.4917C80.9599 93.1397 88.3109 91.5617 95.5929 89.6377C97.1949 89.2107 98.7449 88.7427 100.335 88.2617C103.28 87.3677 105.161 86.6857 106.458 86.2257C107.759 85.7597 108.488 85.5467 109.197 85.4277C109.351 85.3937 109.529 85.3397 109.703 85.2887C109.856 85.2237 110.011 85.1587 110.135 85.1327C110.345 85.0877 110.436 85.1837 110.368 85.4697C110.307 85.7607 110.049 86.2097 109.594 86.6547C108.688 87.5867 107.04 88.5417 104.862 89.4177C101.626 90.7047 98.2899 91.6867 94.9059 92.5867C91.5199 93.4787 88.0809 94.2667 84.6089 94.9957C77.6639 96.4507 70.5859 97.6787 63.4829 98.8067C52.9319 100.477 42.3029 101.895 31.6849 103.218L31.6639 103.154Z" fill="#0322DD"/>
<path fill-rule="evenodd" clip-rule="evenodd" d="M32.7027 101.19C30.2637 100.287 28.0627 98.7633 26.1827 96.9093C24.3167 95.0363 22.8507 92.7103 22.0147 90.1413C21.1777 87.5753 20.9847 84.7813 21.4517 82.1213C21.9107 79.4663 22.8457 76.8793 24.3257 74.6773C24.7677 73.9213 26.5987 75.0983 26.2427 75.7933L25.4087 77.4183C25.1827 77.9793 24.9757 78.5453 24.7227 79.0923C24.4457 79.6343 24.3357 80.2263 24.1307 80.7903C23.9207 81.3563 23.8067 81.9403 23.6987 82.5263C23.2437 84.8593 23.2377 87.2843 23.8597 89.5933C24.4657 91.9043 25.6687 94.0613 27.2627 95.9073C28.8447 97.7823 30.8687 99.2473 33.0197 100.523C33.9457 101.102 33.7897 101.562 32.7027 101.19Z" fill="#0322DD"/>
<path fill-rule="evenodd" clip-rule="evenodd" d="M98.7755 32.24C96.7365 29.483 94.4245 26.844 91.7345 24.979C91.0685 24.506 90.3755 24.141 89.6935 23.837C89.0235 23.585 88.3425 23.455 87.9415 23.54C87.7415 23.583 87.6195 23.632 87.5065 23.759C87.4045 23.789 87.2065 24.229 87.0435 24.511C86.8415 24.801 86.7555 25.179 86.6335 25.533C86.5785 25.713 86.5045 25.885 86.4605 26.072L86.3625 26.655C85.9675 28.935 86.3005 31.447 86.7595 33.894C87.1775 36.065 87.7505 38.236 88.4625 40.374C89.1485 42.518 89.9535 44.636 90.8145 46.734C92.5525 50.924 94.5185 55.038 96.6885 59.046C98.6085 62.605 100.737 66.08 102.975 69.406C104.421 71.537 105.944 73.619 107.515 75.6441C108.301 76.6551 109.095 77.66 109.915 78.618C110.724 79.583 111.571 80.539 112.435 81.295C112.709 81.559 112.857 81.674 112.944 81.829C113.029 81.979 113.048 82.1221 112.99 82.2411C112.932 82.3601 112.796 82.456 112.56 82.51C112.326 82.565 111.969 82.575 111.596 82.477C110.012 82.141 107.66 80.595 105.779 78.189C102.425 73.924 99.5345 69.417 96.8315 64.782C94.1565 60.136 91.7155 55.341 89.6275 50.357C88.3825 47.376 87.1375 44.322 86.0625 41.166C84.9975 38.011 84.0765 34.751 83.7085 31.354C83.5575 29.481 83.4725 27.563 83.9215 25.608C84.0245 25.123 84.2155 24.64 84.3645 24.158C84.5025 23.673 84.8215 23.226 85.0495 22.764C85.1155 22.649 85.1705 22.537 85.2445 22.42L85.5725 22.039C85.6885 21.918 85.7945 21.787 85.9235 21.682L86.3555 21.407C86.6445 21.205 86.9555 21.119 87.2715 21.039C87.5925 20.932 87.8865 20.931 88.1855 20.925C89.3635 20.931 90.3795 21.266 91.2585 21.703C92.1655 22.12 92.9635 22.652 93.7375 23.203C95.2645 24.326 96.6035 25.619 97.8565 26.973C100.926 30.325 103.392 34.118 105.52 38.052C108.723 44.0331 111.067 50.455 112.764 56.935C114.106 61.969 115.154 66.986 115.776 72.113C115.898 73.2421 116.056 74.346 116.153 75.489C116.27 77.628 116.371 78.966 116.206 80.053C116.048 81.056 115.794 81.569 115.444 82.0061C115.284 82.2051 115.137 82.467 115.005 82.625C114.791 82.9421 114.404 82.516 114.23 81.706C114.133 81.303 114.068 80.799 114.013 80.225C113.967 79.648 113.886 79.064 113.797 78.2771C112.942 69.2901 111.315 59.912 108.22 50.959C105.919 44.337 102.874 37.885 98.7275 32.287L98.7755 32.24Z" fill="#0322DD"/>
<path fill-rule="evenodd" clip-rule="evenodd" d="M89.7006 44.6985C96.0826 38.7445 104.639 55.2535 99.9546 63.4495C98.3876 66.1935 87.5006 46.7505 89.7006 44.6985Z" fill="#0322DD"/>
<path fill-rule="evenodd" clip-rule="evenodd" d="M119.993 55.2489C119.855 55.3239 119.765 55.1639 119.651 54.8559C119.616 54.7579 119.608 54.4619 119.651 54.4189C119.733 54.3359 119.821 54.2529 119.912 54.1949C119.968 54.1559 120.797 54.0369 121.072 53.9929C121.34 53.9489 121.605 53.9539 121.865 53.9749L123.444 54.0929C123.56 54.1019 123.673 54.1339 123.783 54.1849C124.16 54.3559 124.551 54.4229 124.949 54.4559C125.015 54.4609 125.08 54.4809 125.153 54.4349C125.273 54.3589 126.338 54.5299 126.466 54.6029C126.784 54.7949 127.111 54.9379 127.433 55.0979C127.479 55.1219 127.534 55.1159 127.566 55.1899C127.641 55.3599 127.749 55.3609 127.851 55.3979C127.994 55.4379 128.128 55.5319 128.26 55.6279C128.326 55.6729 128.381 55.7729 128.441 55.8429C128.495 55.9089 128.436 56.0359 128.41 56.0509C128.335 56.0879 128.375 56.1689 128.37 56.2289C128.368 56.2499 128.366 56.2769 128.36 56.2939C128.352 56.3149 128.118 56.4039 127.87 56.5109C127.625 56.6009 127.376 56.6579 127.329 56.6579C127.309 56.6579 126.098 56.6429 125.912 56.6409C125.838 56.6439 125.771 56.5939 125.703 56.5589C125.67 56.5419 124.677 56.5049 124.639 56.4959C124.441 56.4449 124.229 56.4699 124.052 56.2999C124.016 56.2659 123.974 56.2669 123.934 56.2639C123.584 56.2299 123.247 56.1269 122.909 56.0219C122.736 55.9719 122.558 55.9589 122.382 55.9249C122.351 55.9189 122.322 55.8939 122.292 55.8789C122.253 55.8609 122.216 55.8359 122.176 55.8309C121.759 55.7709 121.353 55.6349 120.934 55.6319C120.839 55.6299 120.402 55.4249 120.293 55.4379C120.232 55.4389 120.049 55.2159 119.993 55.2489Z" fill="#0322DD"/>
<path fill-rule="evenodd" clip-rule="evenodd" d="M52.8498 120.871C50.3638 121.834 47.5898 122.307 44.8888 121.967C43.9097 121.85 42.9237 121.718 41.9917 121.408C41.5857 121.261 41.1748 121.127 40.7847 120.949L40.1938 120.687L39.5608 120.338C38.7657 119.848 38.1138 119.298 37.5017 118.729C36.2847 117.591 35.2197 116.382 34.1788 115.162C33.2578 114.079 32.3177 113.016 31.3858 111.972C30.1908 110.633 28.9148 109.338 28.0088 107.815C27.4218 106.851 30.3148 106.254 31.6518 107.86C33.9917 110.642 36.1667 113.5 38.4718 116.172C39.1628 116.947 39.9747 117.666 40.7847 118.127C41.1427 118.332 41.6557 118.533 42.1447 118.698C42.6357 118.865 43.1318 119.008 43.6307 119.126C45.8218 119.671 48.1497 119.586 50.3848 118.937C51.7267 118.522 53.1917 117.978 54.2197 117.212C54.5977 116.909 54.9387 116.591 55.1227 116.177L55.2978 115.885C55.3448 115.785 55.3547 115.679 55.3878 115.578L55.4818 115.269L55.4797 114.948C55.4917 114.086 54.9748 113.153 54.2908 112.355C53.2168 111.09 51.7488 110.164 50.3267 109.142C50.0128 108.92 49.6787 108.706 49.3657 108.464C48.1967 107.545 47.9258 106.944 48.2598 106.243C48.3337 106.082 48.3978 105.91 48.4998 105.781C48.6728 105.561 48.9487 105.494 49.2507 105.53C49.5367 105.567 49.9118 105.712 50.3188 105.982C51.5818 106.784 52.9658 107.655 54.3078 108.751C54.9778 109.317 55.6478 109.909 56.2728 110.654C56.9028 111.359 57.4958 112.269 57.8768 113.387C57.9848 113.836 58.1388 114.253 58.1198 114.758C58.1248 115.002 58.1238 115.247 58.1168 115.489C58.0928 115.729 58.0217 115.965 57.9667 116.202C57.9017 116.434 57.8498 116.683 57.7558 116.893L57.4358 117.494C57.2268 117.896 56.9668 118.273 56.6628 118.588C55.4307 119.873 54.0807 120.409 52.8787 120.931L52.8498 120.871Z" fill="#0322DD"/>
<path fill-rule="evenodd" clip-rule="evenodd" d="M114.579 29.4612C114.466 29.7252 114.165 29.7412 113.753 29.6152C113.621 29.5752 113.364 29.3102 113.38 29.2182C113.411 29.0392 113.445 28.8612 113.501 28.7012C113.535 28.6042 114.432 27.4072 114.726 26.9872C115.015 26.5842 115.339 26.2172 115.686 25.8702C116.39 25.1652 117.094 24.4562 117.816 23.7652C117.977 23.6112 118.152 23.4732 118.339 23.3492C118.983 22.9272 119.549 22.4212 120.095 21.8912C120.185 21.8022 120.29 21.7252 120.339 21.5952C120.42 21.3802 121.967 20.0182 122.219 19.9062C122.814 19.5882 123.378 19.2332 123.953 18.8952C124.035 18.8472 124.099 18.7662 124.212 18.7702C124.478 18.7792 124.623 18.6362 124.793 18.5232C125.024 18.3582 125.285 18.2322 125.551 18.1122C125.683 18.0542 125.848 18.0382 125.997 18.0032C126.133 17.9732 126.2 18.1612 126.181 18.2072C126.123 18.3362 126.263 18.3442 126.323 18.3982C126.344 18.4172 126.37 18.4412 126.38 18.4632C126.392 18.5002 125.513 19.9772 125.372 20.0822C125.357 20.0962 124.927 20.5142 124.473 20.9552C124.024 21.3972 123.562 21.8642 123.474 21.9652C123.381 22.0712 123.245 22.1282 123.121 22.1982C123.059 22.2302 121.736 23.5632 121.68 23.6112C121.373 23.8492 121.13 24.1582 120.736 24.2952C120.658 24.3232 120.605 24.3822 120.55 24.4362C120.073 24.9012 119.54 25.3052 119.026 25.7312C118.765 25.9502 118.529 26.1972 118.283 26.4332C118.238 26.4762 118.177 26.5012 118.126 26.5362C118.06 26.5802 117.99 26.6182 117.934 26.6722C117.367 27.2472 116.725 27.7492 116.189 28.3592C116.065 28.4992 115.301 28.9952 115.164 29.1642C115.088 29.2572 114.624 29.3552 114.579 29.4612Z" fill="#0322DD"/>
<path fill-rule="evenodd" clip-rule="evenodd" d="M114.512 43.012C114.416 43.103 114.304 43.131 114.174 43.113C114.07 43.096 113.934 43.035 113.756 42.96C113.644 42.911 113.451 42.678 113.505 42.591C113.602 42.429 113.744 42.239 113.856 42.129C113.938 42.023 115.275 41.297 115.724 41.053C116.158 40.819 116.612 40.624 117.07 40.455C117.997 40.097 118.924 39.75 119.862 39.436C120.07 39.365 120.283 39.311 120.501 39.275C121.25 39.148 121.967 38.924 122.673 38.663C122.79 38.619 122.915 38.591 123.013 38.498C123.174 38.344 125.118 37.725 125.384 37.693C126.044 37.61 126.691 37.481 127.347 37.386C127.441 37.372 127.53 37.323 127.633 37.368C127.87 37.474 128.056 37.392 128.255 37.348C128.531 37.288 128.809 37.237 129.095 37.213C129.236 37.202 129.394 37.254 129.546 37.287C129.683 37.318 129.685 37.57 129.651 37.607C129.55 37.716 129.68 37.798 129.719 37.891C129.732 37.923 129.749 37.965 129.751 37.992C129.753 38.051 128.333 38.923 128.166 38.976C128.128 38.99 125.946 39.787 125.666 39.889C125.538 39.945 125.392 39.948 125.251 39.965C125.184 39.972 123.427 40.644 123.354 40.662C122.977 40.759 122.623 40.931 122.211 40.908C122.129 40.904 122.056 40.935 121.983 40.961C121.352 41.182 120.698 41.328 120.052 41.499C119.72 41.584 119.403 41.71 119.078 41.812C119.019 41.83 118.954 41.828 118.892 41.837C118.815 41.849 118.735 41.854 118.661 41.878C117.896 42.133 117.106 42.311 116.366 42.623C116.198 42.695 115.312 42.841 115.132 42.942C115.028 42.993 114.584 42.933 114.512 43.012Z" fill="#0322DD"/>
<defs>
<linearGradient id="paint0_linear_101_2979" x1="76" y1="6" x2="76" y2="146" gradientUnits="userSpaceOnUse">
<stop stop-color="#205EFF"/>
</linearGradient>
</defs>
</svg>
