<svg width="12" height="15" viewBox="0 0 12 15" fill="none" xmlns="http://www.w3.org/2000/svg">
<path d="M3.33581 14.8334C3.70248 14.8334 4.00248 14.5334 4.00248 14.1667C4.00248 13.8001 3.70248 13.5001 3.33581 13.5001C2.96915 13.5001 2.66915 13.8001 2.66915 14.1667C2.66915 14.5334 2.96915 14.8334 3.33581 14.8334ZM6.00248 14.8334C6.36915 14.8334 6.66915 14.5334 6.66915 14.1667C6.66915 13.8001 6.36915 13.5001 6.00248 13.5001C5.63581 13.5001 5.33581 13.8001 5.33581 14.1667C5.33581 14.5334 5.63581 14.8334 6.00248 14.8334ZM6.00248 0.166748C5.63581 0.166748 5.33581 0.466748 5.33581 0.833415V6.16675C5.33581 6.53341 5.63581 6.83341 6.00248 6.83341C6.36915 6.83341 6.66915 6.53341 6.66915 6.16675V0.833415C6.66915 0.466748 6.36915 0.166748 6.00248 0.166748ZM8.62915 2.20675L8.61581 2.22008C8.34248 2.49341 8.37581 2.94008 8.66915 3.19341C9.67581 4.08675 10.2225 5.48008 9.92248 6.99341C9.61581 8.51341 8.39581 9.75341 6.88248 10.0734C4.28915 10.6267 2.00248 8.66008 2.00248 6.16675C2.00248 4.98008 2.52248 3.92008 3.34248 3.18675C3.62915 2.92675 3.65581 2.49341 3.38915 2.22008L3.37581 2.20675C3.12915 1.96008 2.73581 1.94675 2.46915 2.18008C1.12915 3.36008 0.389146 5.20008 0.76248 7.19341C1.15581 9.29341 2.83581 10.9934 4.93581 11.4001C8.34915 12.0601 11.3358 9.46675 11.3358 6.16675C11.3358 4.58008 10.6358 3.15341 9.52915 2.17341C9.26915 1.94675 8.87581 1.96008 8.62915 2.20675ZM8.66915 14.8334C9.03581 14.8334 9.33581 14.5334 9.33581 14.1667C9.33581 13.8001 9.03581 13.5001 8.66915 13.5001C8.30248 13.5001 8.00248 13.8001 8.00248 14.1667C8.00248 14.5334 8.30248 14.8334 8.66915 14.8334Z" fill="black"/>
</svg>
