<svg width="133" height="24" viewBox="0 0 133 24" fill="none" xmlns="http://www.w3.org/2000/svg">
<path d="M0.0837819 10.5755C0.028456 11.0427 0 11.518 0 12C1.13829 9.17986 5.13529 4.12662 12.0169 6.47482C6.87299 8.83679 -1.49563 15.3471 6.18137 22.4926C7.90928 23.4529 9.89913 24 12.0169 24C7.2188 24 8.94881 20.4962 10.5905 20.1583C11.2021 20.0324 12.0252 19.9701 12.9646 19.8991C17.1534 19.5824 23.6552 19.0908 24.0339 12C21.2674 19.6403 11.9154 20.4582 9.94207 15.8849C8.46609 12.4643 11.1884 10.6742 13.9941 8.82916C15.5434 7.81036 17.1181 6.77483 18.0254 5.43885C18.921 4.12013 16.9159 1.49309 15.7776 0.599343C16.733 4.00878 14.3818 4.06258 11.175 4.13595C7.27223 4.22525 2.10223 4.34354 0.0837819 10.5755Z" fill="url(#paint0_linear_1_1492)"/>
<path d="M12.0169 24C18.6537 24 24.0339 18.6274 24.0339 12C23.6552 19.0908 17.1534 19.5824 12.9646 19.8991C12.0252 19.9701 11.2021 20.0324 10.5905 20.1583C8.94881 20.4962 7.2188 24 12.0169 24Z" fill="#1964FF"/>
<path d="M24.0339 12C24.0339 6.68417 20.5725 2.17564 15.7776 0.599343C16.9159 1.49309 18.921 4.12013 18.0254 5.43885C17.1181 6.77483 15.5434 7.81036 13.9941 8.82916C11.1884 10.6742 8.46609 12.4643 9.94207 15.8849C11.9154 20.4582 21.2674 19.6403 24.0339 12Z" fill="#1964FF"/>
<path d="M12.0169 6.47482C5.13529 4.12662 1.13829 9.17986 0 12C0 16.5126 2.49437 20.4434 6.18137 22.4926C-1.49563 15.3471 6.87299 8.83679 12.0169 6.47482Z" fill="#1964FF"/>
<path d="M12.0169 0C5.86283 0 0.789201 4.61955 0.0837819 10.5755C2.10223 4.34354 7.27223 4.22525 11.175 4.13595C14.3818 4.06258 16.733 4.00878 15.7776 0.599343C14.5946 0.21042 13.3304 0 12.0169 0Z" fill="#1964FF"/>
<path d="M29.7939 8.2781C29.7939 6.90028 30.2997 5.71687 31.3112 4.72788C32.3185 3.73889 33.529 3.24439 34.9426 3.24439C36.3393 3.24439 37.5371 3.74311 38.536 4.74056C39.5391 5.738 40.0406 6.9362 40.0406 8.33516C40.0406 9.74257 39.5369 10.9365 38.5296 11.9171C37.5181 12.9019 36.297 13.3942 34.8665 13.3942C33.601 13.3942 32.4646 12.9568 31.4572 12.0819C30.3483 11.1141 29.7939 9.84612 29.7939 8.2781ZM31.2858 8.29712C31.2858 9.3791 31.6498 10.2688 32.3778 10.9661C33.1015 11.6635 33.9374 12.0122 34.8855 12.0122C35.914 12.0122 36.7816 11.6572 37.4884 10.9471C38.1953 10.2286 38.5487 9.35374 38.5487 8.32248C38.5487 7.27855 38.1995 6.40367 37.5011 5.69785C36.807 4.9878 35.9478 4.63278 34.9236 4.63278C33.9036 4.63278 33.0423 4.9878 32.3397 5.69785C31.6371 6.39944 31.2858 7.26587 31.2858 8.29712Z" fill="#1B1D1F"/>
<path d="M41.9007 13.2167V2.76257L49.0493 10.2307V3.42824H50.5285V13.8127L43.38 6.36352V13.2167H41.9007Z" fill="#1B1D1F"/>
<path d="M58.2929 4.81663H54.3631V7.16866H58.1787V8.55705H54.3631V11.8283H58.2929V13.2167H52.8839V3.42824H58.2929V4.81663Z" fill="#1B1D1F"/>
<path d="M67.4794 3.95444V5.70419C66.6245 4.98992 65.7399 4.63278 64.8257 4.63278C63.8184 4.63278 62.9698 4.99414 62.2799 5.71687C61.5858 6.43537 61.2387 7.31447 61.2387 8.35418C61.2387 9.38121 61.5858 10.2476 62.2799 10.9535C62.974 11.6593 63.8247 12.0122 64.832 12.0122C65.3526 12.0122 65.7949 11.9277 66.1589 11.7586C66.362 11.6741 66.5716 11.56 66.7874 11.4163C67.0075 11.2726 67.2382 11.0993 67.4794 10.8964V12.6779C66.6329 13.1554 65.7441 13.3942 64.813 13.3942C63.412 13.3942 62.2164 12.9061 61.226 11.9298C60.2398 10.945 59.7468 9.75737 59.7468 8.36686C59.7468 7.12005 60.1594 6.0085 60.9848 5.03218C62.0005 3.83609 63.3147 3.23805 64.9273 3.23805C65.8076 3.23805 66.6583 3.47685 67.4794 3.95444Z" fill="#1B1D1F"/>
<path d="M68.7999 8.2781C68.7999 6.90028 69.3057 5.71687 70.3172 4.72788C71.3246 3.73889 72.535 3.24439 73.9487 3.24439C75.3454 3.24439 76.5431 3.74311 77.542 4.74056C78.5451 5.738 79.0466 6.9362 79.0466 8.33516C79.0466 9.74257 78.543 10.9365 77.5357 11.9171C76.5241 12.9019 75.303 13.3942 73.8725 13.3942C72.607 13.3942 71.4706 12.9568 70.4633 12.0819C69.3544 11.1141 68.7999 9.84612 68.7999 8.2781ZM70.2919 8.29712C70.2919 9.3791 70.6558 10.2688 71.3838 10.9661C72.1076 11.6635 72.9435 12.0122 73.8915 12.0122C74.92 12.0122 75.7877 11.6572 76.4945 10.9471C77.2013 10.2286 77.5547 9.35374 77.5547 8.32248C77.5547 7.27855 77.2055 6.40367 76.5072 5.69785C75.8131 4.9878 74.9539 4.63278 73.9296 4.63278C72.9096 4.63278 72.0483 4.9878 71.3457 5.69785C70.6431 6.39944 70.2919 7.26587 70.2919 8.29712Z" fill="#1B1D1F"/>
<path d="M80.9068 13.2167V2.76257L88.0553 10.2307V3.42824H89.5346V13.8127L82.386 6.36352V13.2167H80.9068Z" fill="#1B1D1F"/>
<path d="M91.8899 13.2167V2.76257L99.0385 10.2307V3.42824H100.518V13.8127L93.3692 6.36352V13.2167H91.8899Z" fill="#1B1D1F"/>
<path d="M108.282 4.81663H104.352V7.16866H108.168V8.55705H104.352V11.8283H108.282V13.2167H102.873V3.42824H108.282V4.81663Z" fill="#1B1D1F"/>
<path d="M117.469 3.95444V5.70419C116.614 4.98992 115.729 4.63278 114.815 4.63278C113.808 4.63278 112.959 4.99414 112.269 5.71687C111.575 6.43537 111.228 7.31447 111.228 8.35418C111.228 9.38121 111.575 10.2476 112.269 10.9535C112.963 11.6593 113.814 12.0122 114.821 12.0122C115.342 12.0122 115.784 11.9277 116.148 11.7586C116.351 11.6741 116.561 11.56 116.777 11.4163C116.997 11.2726 117.227 11.0993 117.469 10.8964V12.6779C116.622 13.1554 115.733 13.3942 114.802 13.3942C113.401 13.3942 112.206 12.9061 111.215 11.9298C110.229 10.945 109.736 9.75737 109.736 8.36686C109.736 7.12005 110.149 6.0085 110.974 5.03218C111.99 3.83609 113.304 3.23805 114.916 3.23805C115.797 3.23805 116.647 3.47685 117.469 3.95444Z" fill="#1B1D1F"/>
<path d="M122.046 4.81663V13.2167H120.567V4.81663H118.313V3.42824H124.293V4.81663H122.046Z" fill="#1B1D1F"/>
<path d="M127.309 11.8283H132.013V13.2167H124.877L129.69 4.81663H125.665V3.42824H132.121L127.309 11.8283Z" fill="#1B1D1F"/>
<path d="M32.1573 17.8085L31.6871 18.0867C31.5992 17.9343 31.5154 17.835 31.4358 17.7886C31.3529 17.7356 31.2459 17.7091 31.1149 17.7091C30.954 17.7091 30.8205 17.7546 30.7144 17.8457C30.6082 17.9352 30.5551 18.0478 30.5551 18.1836C30.5551 18.3707 30.6944 18.5215 30.9731 18.6357L31.3562 18.7923C31.668 18.9181 31.8961 19.0722 32.0404 19.2543C32.1847 19.4349 32.2568 19.6568 32.2568 19.9202C32.2568 20.2729 32.1391 20.5644 31.9035 20.7946C31.6664 21.0265 31.372 21.1425 31.0204 21.1425C30.687 21.1425 30.4117 21.0439 30.1944 20.8468C29.9804 20.6497 29.8469 20.3723 29.7938 20.0146L30.381 19.8854C30.4075 20.1106 30.454 20.2663 30.5203 20.3524C30.6397 20.5181 30.8139 20.6009 31.0427 20.6009C31.2235 20.6009 31.3736 20.5404 31.4931 20.4195C31.6125 20.2986 31.6722 20.1454 31.6722 19.9599C31.6722 19.8854 31.6614 19.8175 31.6398 19.7562C31.6199 19.6932 31.5876 19.6361 31.5428 19.5848C31.4997 19.5318 31.4433 19.4829 31.3736 19.4382C31.304 19.3918 31.221 19.3479 31.1248 19.3065L30.7542 19.1525C30.2284 18.9306 29.9655 18.6059 29.9655 18.1786C29.9655 17.8904 30.0758 17.6495 30.2964 17.4557C30.517 17.2602 30.7915 17.1625 31.1199 17.1625C31.5627 17.1625 31.9085 17.3778 32.1573 17.8085Z" fill="#1B1D1F"/>
<path d="M35.6189 17.7811V21.0729H35.0392V17.7811H34.1561V17.2371H36.4996V17.7811H35.6189Z" fill="#1B1D1F"/>
<path d="M40.5931 20.1413H38.9487L38.5207 21.0729H37.8963L39.797 16.9961L41.6306 21.0729H40.9962L40.5931 20.1413ZM40.3568 19.5972L39.7871 18.2929L39.19 19.5972H40.3568Z" fill="#1B1D1F"/>
<path d="M45.5599 17.7811H44.2214V18.7028H45.5126V19.2469H44.2214V21.0729H43.6417V17.2371H45.5599V17.7811Z" fill="#1B1D1F"/>
<path d="M49.6808 17.7811H48.3423V18.7028H49.6335V19.2469H48.3423V21.0729H47.7626V17.2371H49.6808V17.7811Z" fill="#1B1D1F"/>
<path d="M52.4632 17.2371V21.0729H51.8835V17.2371H52.4632Z" fill="#1B1D1F"/>
<path d="M54.9147 21.0729V16.9762L57.716 19.9028V17.2371H58.2957V21.3064L55.4944 18.3873V21.0729H54.9147Z" fill="#1B1D1F"/>
<path d="M62.7624 19.0755H64.3497V19.2022C64.3497 19.4904 64.3157 19.7454 64.2477 19.9674C64.1813 20.1727 64.0694 20.3648 63.9118 20.5437C63.5552 20.9445 63.1016 21.1449 62.5509 21.1449C62.0136 21.1449 61.5533 20.9512 61.1702 20.5636C60.787 20.1744 60.5955 19.7073 60.5955 19.1624C60.5955 18.6059 60.7904 18.1339 61.1801 17.7463C61.5699 17.3571 62.0442 17.1625 62.6032 17.1625C62.9034 17.1625 63.1837 17.2238 63.4441 17.3464C63.6929 17.4689 63.9375 17.6677 64.178 17.9426L63.765 18.3376C63.4499 17.9186 63.0659 17.7091 62.6131 17.7091C62.2068 17.7091 61.8659 17.849 61.5906 18.1289C61.3153 18.4039 61.1776 18.7484 61.1776 19.1624C61.1776 19.5897 61.3311 19.9417 61.6379 20.2183C61.9248 20.475 62.2358 20.6033 62.5708 20.6033C62.8561 20.6033 63.1124 20.5073 63.3396 20.3152C63.5668 20.1214 63.6937 19.8895 63.7202 19.6195H62.7624V19.0755Z" fill="#1B1D1F"/>
<path d="M71.2206 18.9388L71.9122 19.7736L71.9346 19.7487C72.0093 19.6676 72.0798 19.5881 72.1461 19.5102C72.2124 19.4324 72.2763 19.3537 72.3377 19.2742L72.7158 19.6618C72.6694 19.728 72.608 19.805 72.5317 19.8928C72.4571 19.9806 72.3675 20.0816 72.263 20.1959L72.9746 21.0729H72.2531L71.8699 20.6033C71.5183 20.9661 71.1526 21.1474 70.7728 21.1474C70.4328 21.1474 70.1442 21.0389 69.907 20.822C69.6748 20.6033 69.5587 20.3334 69.5587 20.0121C69.5587 19.6295 69.7428 19.3115 70.111 19.0581L70.3623 18.8867C70.3656 18.885 70.3714 18.8809 70.3797 18.8742C70.388 18.8676 70.3996 18.8585 70.4146 18.8469C70.1608 18.5769 70.0339 18.3111 70.0339 18.0494C70.0339 17.7911 70.1185 17.5807 70.2877 17.4184C70.4602 17.2561 70.6824 17.1749 70.9544 17.1749C71.2181 17.1749 71.4362 17.2536 71.6087 17.411C71.7812 17.5683 71.8675 17.767 71.8675 18.0072C71.8675 18.1728 71.8202 18.3227 71.7256 18.4569C71.6328 18.591 71.4644 18.7517 71.2206 18.9388ZM70.7604 19.2643L70.728 19.2866C70.4908 19.4506 70.3291 19.5823 70.2429 19.6817C70.1583 19.781 70.116 19.8862 70.116 19.9972C70.116 20.1562 70.1799 20.3019 70.3076 20.4344C70.4403 20.5619 70.5862 20.6257 70.7454 20.6257C70.9693 20.6257 71.2272 20.4791 71.5192 20.186L70.7604 19.2643ZM70.8848 18.5314L70.932 18.4966C71.0133 18.4353 71.0805 18.3823 71.1335 18.3376C71.1866 18.2912 71.2248 18.2523 71.248 18.2209C71.2977 18.1596 71.3226 18.0842 71.3226 17.9948C71.3226 17.8937 71.2886 17.8118 71.2206 17.7488C71.1526 17.6859 71.0614 17.6544 70.947 17.6544C70.8425 17.6544 70.7546 17.6867 70.6832 17.7513C70.6119 17.8126 70.5763 17.8913 70.5763 17.9873C70.5763 18.1 70.621 18.2109 70.7106 18.3202L70.8549 18.4941C70.8599 18.5024 70.8698 18.5148 70.8848 18.5314Z" fill="#1B1D1F"/>
<path d="M77.8751 19.1376C77.8751 18.5976 78.0733 18.1339 78.4697 17.7463C78.8645 17.3588 79.3388 17.165 79.8928 17.165C80.4401 17.165 80.9095 17.3604 81.3009 17.7513C81.694 18.1422 81.8905 18.6117 81.8905 19.1599C81.8905 19.7115 81.6932 20.1794 81.2984 20.5636C80.902 20.9495 80.4235 21.1425 79.8629 21.1425C79.367 21.1425 78.9217 20.971 78.5269 20.6282C78.0924 20.2489 77.8751 19.752 77.8751 19.1376ZM78.4598 19.145C78.4598 19.569 78.6024 19.9177 78.8877 20.1909C79.1713 20.4642 79.4989 20.6009 79.8704 20.6009C80.2734 20.6009 80.6134 20.4617 80.8904 20.1835C81.1674 19.9019 81.3059 19.5591 81.3059 19.155C81.3059 18.7459 81.169 18.403 80.8954 18.1265C80.6234 17.8482 80.2867 17.7091 79.8853 17.7091C79.4856 17.7091 79.1481 17.8482 78.8728 18.1265C78.5974 18.4014 78.4598 18.7409 78.4598 19.145Z" fill="#1B1D1F"/>
<path d="M84.7277 17.2371V19.5475C84.7277 19.8771 84.7816 20.1181 84.8894 20.2704C85.0503 20.4907 85.2767 20.6009 85.5686 20.6009C85.8621 20.6009 86.0894 20.4907 86.2502 20.2704C86.3581 20.123 86.412 19.8821 86.412 19.5475V17.2371H86.9916V19.7065C86.9916 20.1106 86.8656 20.4435 86.6135 20.7052C86.3299 20.9967 85.9816 21.1425 85.5686 21.1425C85.1556 21.1425 84.8081 20.9967 84.5262 20.7052C84.2741 20.4435 84.148 20.1106 84.148 19.7065V17.2371H84.7277Z" fill="#1B1D1F"/>
<path d="M90.503 17.7811V21.0729H89.9233V17.7811H89.0401V17.2371H91.3837V17.7811H90.503Z" fill="#1B1D1F"/>
<path d="M95.5966 17.8085L95.1264 18.0867C95.0385 17.9343 94.9548 17.835 94.8751 17.7886C94.7922 17.7356 94.6852 17.7091 94.5542 17.7091C94.3933 17.7091 94.2598 17.7546 94.1537 17.8457C94.0475 17.9352 93.9944 18.0478 93.9944 18.1836C93.9944 18.3707 94.1338 18.5215 94.4124 18.6357L94.7955 18.7923C95.1073 18.9181 95.3354 19.0722 95.4797 19.2543C95.624 19.4349 95.6961 19.6568 95.6961 19.9202C95.6961 20.2729 95.5784 20.5644 95.3429 20.7946C95.1057 21.0265 94.8113 21.1425 94.4597 21.1425C94.1263 21.1425 93.851 21.0439 93.6337 20.8468C93.4197 20.6497 93.2862 20.3723 93.2332 20.0146L93.8203 19.8854C93.8468 20.1106 93.8933 20.2663 93.9596 20.3524C94.079 20.5181 94.2532 20.6009 94.4821 20.6009C94.6628 20.6009 94.8129 20.5404 94.9324 20.4195C95.0518 20.2986 95.1115 20.1454 95.1115 19.9599C95.1115 19.8854 95.1007 19.8175 95.0791 19.7562C95.0592 19.6932 95.0269 19.6361 94.9821 19.5848C94.939 19.5318 94.8826 19.4829 94.8129 19.4382C94.7433 19.3918 94.6604 19.3479 94.5642 19.3065L94.1935 19.1525C93.6677 18.9306 93.4048 18.6059 93.4048 18.1786C93.4048 17.8904 93.5151 17.6495 93.7357 17.4557C93.9563 17.2602 94.2308 17.1625 94.5592 17.1625C95.002 17.1625 95.3478 17.3778 95.5966 17.8085Z" fill="#1B1D1F"/>
<path d="M97.7322 19.1376C97.7322 18.5976 97.9304 18.1339 98.3268 17.7463C98.7215 17.3588 99.1959 17.165 99.7498 17.165C100.297 17.165 100.767 17.3604 101.158 17.7513C101.551 18.1422 101.748 18.6117 101.748 19.1599C101.748 19.7115 101.55 20.1794 101.155 20.5636C100.759 20.9495 100.281 21.1425 99.72 21.1425C99.2241 21.1425 98.7788 20.971 98.384 20.6282C97.9495 20.2489 97.7322 19.752 97.7322 19.1376ZM98.3168 19.145C98.3168 19.569 98.4595 19.9177 98.7448 20.1909C99.0284 20.4642 99.3559 20.6009 99.7275 20.6009C100.13 20.6009 100.47 20.4617 100.747 20.1835C101.024 19.9019 101.163 19.5591 101.163 19.155C101.163 18.7459 101.026 18.403 100.752 18.1265C100.48 17.8482 100.144 17.7091 99.7424 17.7091C99.3427 17.7091 99.0051 17.8482 98.7298 18.1265C98.4545 18.4014 98.3168 18.7409 98.3168 19.145Z" fill="#1B1D1F"/>
<path d="M104.585 17.2371V19.5475C104.585 19.8771 104.639 20.1181 104.746 20.2704C104.907 20.4907 105.134 20.6009 105.426 20.6009C105.719 20.6009 105.946 20.4907 106.107 20.2704C106.215 20.123 106.269 19.8821 106.269 19.5475V17.2371H106.849V19.7065C106.849 20.1106 106.723 20.4435 106.471 20.7052C106.187 20.9967 105.839 21.1425 105.426 21.1425C105.013 21.1425 104.665 20.9967 104.383 20.7052C104.131 20.4435 104.005 20.1106 104.005 19.7065V17.2371H104.585Z" fill="#1B1D1F"/>
<path d="M110.601 19.4382L111.791 21.0729H111.082L109.984 19.5028H109.88V21.0729H109.3V17.2371H109.979C110.487 17.2371 110.853 17.3323 111.079 17.5228C111.328 17.7348 111.452 18.0147 111.452 18.3625C111.452 18.6341 111.374 18.8676 111.218 19.0631C111.062 19.2585 110.857 19.3835 110.601 19.4382ZM109.88 18.9985H110.064C110.613 18.9985 110.887 18.7889 110.887 18.3699C110.887 17.9774 110.62 17.7811 110.086 17.7811H109.88V18.9985Z" fill="#1B1D1F"/>
<path d="M116.648 17.4433V18.1289C116.313 17.849 115.966 17.7091 115.608 17.7091C115.213 17.7091 114.881 17.8507 114.61 18.1339C114.338 18.4155 114.202 18.76 114.202 19.1674C114.202 19.5699 114.338 19.9094 114.61 20.186C114.882 20.4626 115.216 20.6009 115.61 20.6009C115.814 20.6009 115.988 20.5677 116.13 20.5015C116.21 20.4684 116.292 20.4236 116.377 20.3673C116.463 20.311 116.553 20.2431 116.648 20.1636V20.8617C116.316 21.0489 115.968 21.1425 115.603 21.1425C115.054 21.1425 114.585 20.9512 114.197 20.5686C113.811 20.1827 113.618 19.7173 113.618 19.1724C113.618 18.6838 113.779 18.2482 114.103 17.8656C114.501 17.3969 115.016 17.1625 115.648 17.1625C115.993 17.1625 116.326 17.2561 116.648 17.4433Z" fill="#1B1D1F"/>
<path d="M119.49 17.2371V21.0729H118.91V17.2371H119.49Z" fill="#1B1D1F"/>
<path d="M121.942 21.0729V16.9762L124.743 19.9028V17.2371H125.323V21.3064L122.521 18.3873V21.0729H121.942Z" fill="#1B1D1F"/>
<path d="M129.789 19.0755H131.376V19.2022C131.376 19.4904 131.342 19.7454 131.274 19.9674C131.208 20.1727 131.096 20.3648 130.939 20.5437C130.582 20.9445 130.128 21.1449 129.578 21.1449C129.04 21.1449 128.58 20.9512 128.197 20.5636C127.814 20.1744 127.622 19.7073 127.622 19.1624C127.622 18.6059 127.817 18.1339 128.207 17.7463C128.597 17.3571 129.071 17.1625 129.63 17.1625C129.93 17.1625 130.21 17.2238 130.471 17.3464C130.72 17.4689 130.964 17.6677 131.205 17.9426L130.792 18.3376C130.477 17.9186 130.093 17.7091 129.64 17.7091C129.234 17.7091 128.893 17.849 128.617 18.1289C128.342 18.4039 128.204 18.7484 128.204 19.1624C128.204 19.5897 128.358 19.9417 128.665 20.2183C128.952 20.475 129.263 20.6033 129.598 20.6033C129.883 20.6033 130.139 20.5073 130.366 20.3152C130.594 20.1214 130.72 19.8895 130.747 19.6195H129.789V19.0755Z" fill="#1B1D1F"/>
<defs>
<linearGradient id="paint0_linear_1_1492" x1="12.0169" y1="0" x2="12.0169" y2="24" gradientUnits="userSpaceOnUse">
<stop stop-color="#43FFFF"/>
<stop offset="1" stop-color="#20D7FF"/>
</linearGradient>
</defs>
</svg>
