<svg width="62" height="63" viewBox="0 0 62 63" fill="none" xmlns="http://www.w3.org/2000/svg">
<rect y="0.500092" width="62" height="62" rx="31" fill="#E1E8FF"/>
<path fill-rule="evenodd" clip-rule="evenodd" d="M34.5 21.8751V18.3751H27.5V21.8751H34.5ZM17 25.3751V44.6251H45V25.3751H17ZM45 21.8751C46.9425 21.8751 48.5 23.4326 48.5 25.3751V44.6251C48.5 46.5676 46.9425 48.1251 45 48.1251H17C15.0575 48.1251 13.5 46.5676 13.5 44.6251L13.5175 25.3751C13.5175 23.4326 15.0575 21.8751 17 21.8751H24V18.3751C24 16.4326 25.5575 14.8751 27.5 14.8751H34.5C36.4425 14.8751 38 16.4326 38 18.3751V21.8751H45Z" fill="#85BDFF"/>
<path d="M17 25.3751V44.6251H45V25.3751H17Z" fill="#85BDFF"/>
</svg>
