<svg width="62" height="63" viewBox="0 0 62 63" fill="none" xmlns="http://www.w3.org/2000/svg">
<rect y="0.500092" width="62" height="62" rx="31" fill="#E1E8FF"/>
<path d="M31 31.5001C34.8675 31.5001 38 28.3676 38 24.5001C38 20.6326 34.8675 17.5001 31 17.5001C27.1325 17.5001 24 20.6326 24 24.5001C24 28.3676 27.1325 31.5001 31 31.5001ZM31 21.0001C32.925 21.0001 34.5 22.5751 34.5 24.5001C34.5 26.4251 32.925 28.0001 31 28.0001C29.075 28.0001 27.5 26.4251 27.5 24.5001C27.5 22.5751 29.075 21.0001 31 21.0001ZM31 33.2501C26.3275 33.2501 17 35.5951 17 40.2501V43.7501C17 44.7126 17.7875 45.5001 18.75 45.5001H43.25C44.2125 45.5001 45 44.7126 45 43.7501V40.2501C45 35.5951 35.6725 33.2501 31 33.2501ZM41.5 42.0001H20.5V40.2676C20.85 39.0076 26.275 36.7501 31 36.7501C35.725 36.7501 41.15 39.0076 41.5 40.2501V42.0001Z" fill="#85BDFF"/>
<path d="M41.5 42.0001H20.5V40.2676C20.85 39.0076 26.275 36.7501 31 36.7501C35.725 36.7501 41.15 39.0076 41.5 40.2501V42.0001Z" fill="#85BDFF"/>
<path d="M31 21.0001C32.925 21.0001 34.5 22.5751 34.5 24.5001C34.5 26.4251 32.925 28.0001 31 28.0001C29.075 28.0001 27.5 26.4251 27.5 24.5001C27.5 22.5751 29.075 21.0001 31 21.0001Z" fill="#85BDFF"/>
</svg>
