<svg width="62" height="63" viewBox="0 0 62 63" fill="none" xmlns="http://www.w3.org/2000/svg">
<rect y="0.500092" width="62" height="62" rx="31" fill="#E1E8FF"/>
<path d="M49.5406 41.5288C48.9855 41.5288 48.5204 41.3362 48.1455 40.9511C47.7693 40.5674 47.5812 40.0913 47.5812 39.523V27.6892L31.8572 36.4643C31.5633 36.6315 31.2609 36.7565 30.95 36.8394C30.6405 36.9236 30.3061 36.9657 29.9468 36.9657C29.5876 36.9657 29.2532 36.9236 28.9436 36.8394C28.6327 36.7565 28.3303 36.6315 28.0364 36.4643L11.5287 27.2379C11.2021 27.0708 10.9494 26.8281 10.7704 26.5099C10.5901 26.193 10.5 25.8506 10.5 25.4829C10.5 25.1152 10.5901 24.7729 10.7704 24.456C10.9494 24.1378 11.2021 23.8951 11.5287 23.7279L28.0854 14.5016C28.3793 14.3344 28.6811 14.2087 28.9907 14.1245C29.3015 14.0416 29.6203 14.0001 29.9468 14.0001C30.2734 14.0001 30.5921 14.0416 30.903 14.1245C31.2126 14.2087 31.5143 14.3344 31.8082 14.5016L50.4713 24.9314C50.7979 25.0985 51.0513 25.3405 51.2316 25.6574C51.4105 25.9757 51.5 26.3187 51.5 26.6864V39.523C51.5 40.0913 51.3119 40.5674 50.9357 40.9511C50.5608 41.3362 50.0958 41.5288 49.5406 41.5288ZM29.9468 49.0001C29.6203 49.0001 29.3015 48.9587 28.9907 48.8758C28.6811 48.7915 28.3793 48.6658 28.0854 48.4987L18.2885 43.0832C17.6354 42.7155 17.1292 42.2228 16.77 41.605C16.4108 40.9859 16.2312 40.2919 16.2312 39.523V31.9013L27.3507 38.0689C27.7752 38.3029 28.1997 38.5115 28.6243 38.6947C29.0488 38.8792 29.4896 38.9715 29.9468 38.9715C30.404 38.9715 30.8534 38.8712 31.2949 38.6706C31.7351 38.47 32.1675 38.2527 32.592 38.0187L43.6625 31.9013V39.523C43.6625 40.2919 43.4829 40.9859 43.1237 41.605C42.7644 42.2228 42.2583 42.7155 41.6051 43.0832L31.8082 48.4987C31.5143 48.6658 31.2126 48.7915 30.903 48.8758C30.5921 48.9587 30.2734 49.0001 29.9468 49.0001Z" fill="#85BDFF"/>
</svg>
