<svg width="16" height="16" viewBox="0 0 16 16" fill="none" xmlns="http://www.w3.org/2000/svg">
<path d="M13.3333 4.33334H11.3333V3.00001C11.3333 2.26001 10.74 1.66667 9.99998 1.66667H5.99998C5.25998 1.66667 4.66665 2.26001 4.66665 3.00001V4.33334H2.66665C1.92665 4.33334 1.33331 4.92667 1.33331 5.66667V13C1.33331 13.74 1.92665 14.3333 2.66665 14.3333H13.3333C14.0733 14.3333 14.6666 13.74 14.6666 13V5.66667C14.6666 4.92667 14.0733 4.33334 13.3333 4.33334ZM5.99998 3.00001H9.99998V4.33334H5.99998V3.00001ZM13.3333 13H2.66665V11.6667H13.3333V13ZM13.3333 9.66667H2.66665V5.66667H4.66665V7H5.99998V5.66667H9.99998V7H11.3333V5.66667H13.3333V9.66667Z" fill="#A0A6AD"/>
</svg>
