<svg width="100" height="100" viewBox="0 0 100 100" fill="none" xmlns="http://www.w3.org/2000/svg">
<path d="M54.71 42.6694L49.2893 37.0812L43.8686 42.6694M49.2893 37.8573L49.2893 61.8474" stroke="white" stroke-width="0.75" stroke-linecap="round" stroke-linejoin="round"/>
<path d="M62.0465 3.79352L61.8381 4.83335L60.0402 4.46559L58.9235 9.95595L57.6161 9.68528L58.7329 4.19492L56.9468 3.82779L57.1552 2.78797L62.0465 3.79352Z" fill="white"/>
<path d="M71.039 7.12015L68.4598 13.2644L67.2244 12.7496L68.3451 10.0817L65.725 8.9733L64.5931 11.6288L63.3695 11.1146L65.9487 4.97031L67.1723 5.48449L66.1322 7.96772L68.7523 9.07617L69.7924 6.59293L71.039 7.12015Z" fill="white"/>
<path d="M75.3924 16.08L73.2079 14.5462L72.055 15.3701L70.9057 14.5647L76.698 10.588L77.9383 11.4573L76.151 18.2462L75.0017 17.4408L75.3924 16.08ZM75.6832 15.0446L76.4956 12.1831L74.0789 13.9197L75.6832 15.0446Z" fill="white"/>
<path d="M82.0168 24.2396L81.1129 23.2583L82.4178 18.0024L79.0927 21.072L78.1888 20.0907L83.077 15.5815L83.9809 16.5627L82.6506 21.8527L86.0005 18.7609L86.9044 19.7421L82.0168 24.2396Z" fill="white"/>
<path d="M88.1651 27.3554L86.7057 31.5166L85.8825 30.1264L87.2333 26.4553L84.6135 28.0156L83.9308 26.8691L89.6454 23.4668L90.3282 24.6133L87.7574 26.1409L91.5847 26.7353L92.4086 28.1137L88.1651 27.3554Z" fill="white"/>
<path d="M90.112 37.8393C89.785 37.7746 89.4865 37.6169 89.2048 37.3657C88.9231 37.1145 88.7058 36.7604 88.553 36.3035C88.3877 35.8577 88.3272 35.4412 88.349 35.029C88.3708 34.6169 88.4954 34.2693 88.7005 33.9614C88.9057 33.6536 89.2018 33.4096 89.5648 33.2401L90.0487 34.5767C89.8064 34.6937 89.6317 34.8733 89.5245 35.1155C89.4173 35.3578 89.4153 35.6175 89.518 35.9064C89.6102 36.1711 89.7545 36.3441 89.9384 36.4366C90.1223 36.5291 90.3347 36.5287 90.5509 36.4576C90.7436 36.3852 90.891 36.275 90.9703 36.1139C91.0614 35.9535 91.1061 35.7787 91.1285 35.5792C91.139 35.379 91.1534 35.1082 91.1355 34.7766C91.1233 34.339 91.1426 33.974 91.1817 33.6808C91.2209 33.3877 91.33 33.1102 91.5091 32.8481C91.6881 32.5861 91.97 32.3886 92.3671 32.2445C92.9084 32.0491 93.4014 32.0991 93.8473 32.3709C94.2931 32.6428 94.6342 33.1097 94.8718 33.7483C95.1082 34.4104 95.1365 34.9906 94.9678 35.5011C94.7992 36.0117 94.4491 36.3827 93.9288 36.6264L93.4455 35.278C93.6524 35.1592 93.8142 35.0025 93.896 34.7943C93.9896 34.5868 93.9785 34.35 93.8863 34.0853C93.804 33.8565 93.6715 33.6841 93.4994 33.5923C93.3279 33.4886 93.1272 33.4897 92.8986 33.5719C92.7184 33.6331 92.5827 33.744 92.5034 33.905C92.4247 34.0544 92.3682 34.2285 92.3576 34.4286C92.347 34.6288 92.3333 34.8879 92.3518 35.2077C92.3516 35.6564 92.3435 36.0339 92.3037 36.3388C92.2764 36.6325 92.1666 36.9219 91.9758 37.1833C91.7967 37.4453 91.5024 37.6539 91.0936 37.7974C90.7592 37.8739 90.4389 37.9041 90.112 37.8393Z" fill="white"/>
<path d="M97.6585 49.3074L96.605 49.3692L96.4461 46.5738L94.6704 46.6796L94.7997 48.9184L93.7815 48.982L93.6522 46.7432L90.8583 46.9126L90.7751 45.5856L97.4159 45.1968L97.6585 49.3074Z" fill="white"/>
<path d="M96.5174 58.3863C96.1512 58.839 95.6971 59.169 95.1316 59.3749C94.566 59.5808 93.9733 59.6318 93.3292 59.5383C92.6858 59.433 92.1315 59.2027 91.6554 58.8347C91.1792 58.4668 90.8499 58.0005 90.6426 57.458C90.4353 56.9155 90.3835 56.3341 90.4753 55.7132C90.5784 55.1046 90.8077 54.5619 91.1739 54.1091C91.5401 53.6564 92.0059 53.327 92.5597 53.1205C93.1252 52.9145 93.718 52.8636 94.3732 52.9695C95.0167 53.0747 95.5709 53.3051 96.0471 53.6731C96.5115 54.0403 96.8532 54.4955 97.0599 55.0498C97.2671 55.5923 97.319 56.1737 97.2271 56.7946C97.1352 57.4156 96.8718 57.9329 96.5174 58.3863ZM95.8891 55.5422C95.7641 55.2285 95.5425 54.9568 95.2471 54.7403C94.9518 54.5237 94.5814 54.3858 94.1485 54.3155C93.7156 54.2451 93.3248 54.2714 92.965 54.382C92.6168 54.4933 92.3238 54.6784 92.1088 54.9503C91.8944 55.2104 91.7469 55.545 91.6917 55.9199C91.6364 56.2949 91.6648 56.6506 91.7892 56.9761C91.9135 57.3016 92.1358 57.5615 92.4312 57.778C92.7265 57.9946 93.0968 58.1325 93.5297 58.2028C93.9626 58.2732 94.3534 58.2469 94.7133 58.1363C95.0614 58.025 95.3551 57.8281 95.5695 57.568C95.7838 57.3079 95.9314 56.9733 95.9866 56.5984C96.0543 56.2123 96.0259 55.8565 95.8891 55.5422Z" fill="white"/>
<path d="M88.0126 65.2298L90.9808 64.6682L91.1866 64.1242L88.7559 63.2266L89.2116 61.9756L95.4501 64.2814L94.5686 66.6668C94.294 67.3961 93.9141 67.8835 93.4291 68.1292C92.9323 68.3742 92.4003 68.393 91.8213 68.1849C91.3469 68.006 91.0076 67.7281 90.7798 67.3498C90.552 66.9716 90.4822 66.5073 90.5573 65.9799L87.4907 66.6189L88.0126 65.2298ZM92.043 64.4416L91.6698 65.4726C91.4076 66.1907 91.5951 66.6613 92.2199 66.8954C92.5209 67.006 92.7922 67.0087 93.0226 66.8911C93.253 66.7736 93.4427 66.5357 93.5679 66.1764L93.9411 65.1453L92.043 64.4416Z" fill="white"/>
<path d="M82.0736 76.8743C81.9486 76.5606 81.919 76.2284 81.986 75.8541C82.053 75.4798 82.2259 75.1112 82.5178 74.7253C82.7972 74.3506 83.1194 74.0608 83.4719 73.8671C83.8244 73.6734 84.1836 73.5745 84.5614 73.5711C84.9386 73.5794 85.2866 73.6925 85.6297 73.8998L84.7795 75.0234C84.5393 74.8807 84.3058 74.8327 84.0438 74.8778C83.7936 74.9234 83.5737 75.0652 83.3841 75.303C83.2192 75.5186 83.1485 75.7392 83.1733 75.9412C83.198 76.1433 83.3063 76.3262 83.4995 76.4664C83.658 76.593 83.832 76.6495 84.0215 76.6361C84.1993 76.622 84.3789 76.5725 84.5493 76.4754C84.7196 76.3782 84.9513 76.2371 85.2326 76.0514C85.5881 75.7988 85.9047 75.615 86.1711 75.4875C86.4374 75.36 86.7354 75.3051 87.0537 75.3104C87.372 75.3156 87.6953 75.4509 88.0241 75.7047C88.478 76.0478 88.7144 76.4856 88.7334 77.018C88.7524 77.5504 88.5472 78.0826 88.1414 78.6159C87.7225 79.1721 87.2436 79.5244 86.7178 79.6498C86.1919 79.7752 85.689 79.6892 85.2091 79.392L86.0723 78.2455C86.2902 78.3634 86.5008 78.3983 86.7269 78.3631C86.9529 78.328 87.1487 78.1967 87.3142 77.9694C87.466 77.7768 87.5354 77.5798 87.5225 77.3783C87.5095 77.1769 87.4123 77.0064 87.208 76.8537C87.0489 76.7389 86.8866 76.683 86.7206 76.6978C86.5429 76.7119 86.375 76.7619 86.2047 76.8591C86.0343 76.9563 85.815 77.0863 85.5455 77.2726C85.1664 77.5239 84.8499 77.7077 84.5829 77.847C84.3165 77.9744 84.0179 78.0411 83.6996 78.0359C83.3813 78.0307 83.0462 77.8947 82.7057 77.6403C82.3973 77.4467 82.1986 77.188 82.0736 76.8743Z" fill="white"/>
<path d="M79.3937 86.7084C78.7075 86.7426 78.0455 86.5418 77.4312 86.1075L78.4826 85.1954C78.8275 85.3674 79.1898 85.434 79.5459 85.394C79.9138 85.3546 80.2533 85.1839 80.5748 84.9058C80.835 84.6718 81.0265 84.3986 81.1139 84.0844C81.2014 83.7703 81.2077 83.4282 81.1199 83.081C81.0203 82.7332 80.8259 82.3922 80.5368 82.0579C80.247 81.7354 79.9412 81.4947 79.6068 81.3469C79.2724 81.1991 78.9441 81.1579 78.6109 81.2109C78.2777 81.264 77.9871 81.402 77.7152 81.6354C77.3936 81.9134 77.1879 82.233 77.098 82.5943C77.008 82.9556 77.0246 83.3107 77.1465 83.6833L76.0945 84.6072C75.7405 83.9387 75.6348 83.26 75.7651 82.5821C75.8954 81.9041 76.2703 81.2865 76.901 80.7416C77.3836 80.3187 77.8928 80.0625 78.4528 79.9626C79.0127 79.8626 79.5527 79.9151 80.0965 80.1213C80.6396 80.3393 81.1287 80.6843 81.5509 81.1793C81.9849 81.6748 82.2752 82.2099 82.4107 82.7722C82.5461 83.3344 82.5286 83.8885 82.3469 84.422C82.1653 84.9555 81.8449 85.4343 81.3623 85.8572C80.7446 86.3792 80.08 86.6743 79.3937 86.7084Z" fill="white"/>
<path d="M68.9879 86.2228L71.6103 87.7329L72.1213 87.4414L70.8487 85.1769L72.004 84.5302L75.2604 90.3371L73.0471 91.5767C72.3781 91.9542 71.7698 92.0752 71.2335 91.9521C70.6972 91.8289 70.2786 91.4877 69.9766 90.9519C69.7284 90.5136 69.6455 90.0722 69.7274 89.6397C69.8093 89.2071 70.043 88.8063 70.4512 88.4503L67.6987 86.945L68.9879 86.2228ZM72.5744 88.245L71.6254 88.7847C70.9688 89.151 70.7896 89.6374 71.1245 90.2222C71.2867 90.5024 71.4897 90.6786 71.7344 90.7389C71.979 90.7992 72.2769 90.7443 72.6176 90.55L73.5784 90.0109L72.5744 88.245Z" fill="white"/>
<path d="M62.3322 95.5852C61.7606 95.4601 61.2677 95.1858 60.8287 94.7844C60.3898 94.3831 60.0871 93.8591 59.8959 93.2348C59.7047 92.6106 59.6659 92.0062 59.7912 91.4225C59.9165 90.8388 60.1793 90.3332 60.5796 89.9059C60.9798 89.4786 61.4797 89.1747 62.0676 88.9936C62.6671 88.8131 63.2469 88.785 63.8185 88.9101C64.3901 89.0351 64.883 89.3095 65.3214 89.7226C65.7597 90.1357 66.063 90.6479 66.2653 91.2846C66.4676 91.9213 66.4953 92.5132 66.37 93.0969C66.2447 93.6807 65.9819 94.1862 65.5817 94.6135C65.1814 95.0408 64.6933 95.3454 64.0937 95.5259C63.4829 95.694 62.9032 95.722 62.3322 95.5852ZM64.6226 93.7829C64.8487 93.5233 64.995 93.2123 65.0614 92.8498C65.1278 92.4873 65.0895 92.0956 64.9584 91.6752C64.8272 91.2549 64.6329 90.9139 64.3759 90.6404C64.1184 90.3786 63.8211 90.1974 63.4948 90.1209C63.1566 90.0437 62.8135 90.0608 62.4419 90.1708C62.0702 90.2809 61.7654 90.4653 61.5393 90.7248C61.3131 90.9843 61.1669 91.2953 61.1005 91.6578C61.0341 92.0204 61.0723 92.4121 61.2035 92.8324C61.3346 93.2527 61.529 93.5938 61.7859 93.8673C62.0435 94.1291 62.3407 94.3103 62.6789 94.3874C63.017 94.4645 63.3601 94.4475 63.7435 94.3381C64.0923 94.215 64.3853 94.03 64.6226 93.7829Z" fill="white"/>
<path d="M54.6581 91.6324L52.4395 91.8562L52.3395 90.8471L55.8873 90.4819L56.575 97.1079L55.2576 97.25L54.6581 91.6324Z" fill="white"/>
<path d="M48.0283 91.8207L45.7925 91.7012L45.8461 90.6885L49.3992 90.8903L49.0352 97.5428L47.7055 97.4717L48.0283 91.8207Z" fill="white"/>
<path d="M40.4031 96.526L41.6577 89.9921L42.9663 90.2392L41.7111 96.7849L40.4031 96.526Z" fill="white"/>
<path d="M33.1166 87.2923L34.3663 87.7606L35.5852 93.0452L37.1555 88.7954L38.4052 89.2638L36.0923 95.5049L34.842 95.0484L33.6367 89.729L32.0528 94.0135L30.8031 93.5452L33.1166 87.2923Z" fill="white"/>
<path d="M22.5899 88.1815C22.3634 87.5553 22.3735 86.9182 22.6203 86.2701L23.7837 87.029C23.731 87.3568 23.7736 87.6661 23.9104 87.9805C24.0478 88.2831 24.2818 88.5435 24.6125 88.762C24.932 88.968 25.2682 89.0805 25.6095 89.0987C25.9508 89.117 26.2858 89.0286 26.6024 88.8448C26.9189 88.661 27.1934 88.3804 27.4369 88.0156C27.8218 87.4339 27.9576 86.8744 27.8562 86.3376C27.7548 85.8008 27.436 85.3586 26.888 85.0104C26.4886 84.7529 26.0693 84.6478 25.6302 84.6952C25.1911 84.7426 24.7903 84.9573 24.4291 85.3159L26.3109 86.5501L25.7848 87.3486L22.9673 85.5093L23.6732 84.437C23.9966 84.1237 24.3633 83.8835 24.7969 83.7177C25.2305 83.552 25.6932 83.5059 26.1861 83.5559C26.6791 83.6059 27.1646 83.7971 27.6439 84.1062C28.1913 84.4661 28.5931 84.9009 28.8611 85.4112C29.1291 85.9215 29.2299 86.4701 29.1758 87.0458C29.1217 87.6215 28.9147 88.1891 28.5552 88.7367C28.1952 89.2961 27.7603 89.7097 27.2498 89.9894C26.7394 90.2692 26.2018 90.3939 25.6252 90.3631C25.0486 90.3322 24.4925 90.1372 23.9451 89.7773C23.272 89.3398 22.8163 88.8076 22.5899 88.1815Z" fill="white"/>
<path d="M16.5858 84.1294L19.9469 80.8256L20.7673 81.6016L17.6532 85.143L16.5858 84.1294ZM20.4098 80.1064L21.3603 79.0944L22.3936 80.0826L21.4438 81.0828L20.4098 80.1064Z" fill="white"/>
<path d="M10.8884 76.0543C10.8998 75.3936 11.1322 74.792 11.5845 74.273L12.4097 75.4035C12.2412 75.6897 12.1773 76.0051 12.1951 76.3367C12.2247 76.669 12.3491 76.9945 12.58 77.3138C12.8116 77.6214 13.0828 77.8485 13.3942 77.9832C13.7057 78.118 14.0457 78.1598 14.4031 78.0962C14.7605 78.0327 15.1229 77.875 15.4791 77.6106C16.0441 77.1921 16.3638 76.725 16.4631 76.1871C16.5506 75.6486 16.4127 75.1335 16.0276 74.6051C15.741 74.2237 15.3887 73.9687 14.9576 73.863C14.5266 73.7573 14.0757 73.804 13.6155 74.0274L14.9471 75.8463L14.1739 76.4072L12.1818 73.6909L13.2133 72.9312C13.6239 72.7525 14.0538 72.6574 14.5258 72.659C14.9859 72.66 15.4399 72.7787 15.8764 73.0028C16.313 73.2269 16.7074 73.5787 17.0491 74.0339C17.4342 74.5622 17.665 75.106 17.7286 75.688C17.7928 76.2583 17.7047 76.8086 17.4524 77.3383C17.2002 77.868 16.8104 78.3195 16.2826 78.7045C15.7548 79.0896 15.1992 79.3315 14.6163 79.4184C14.0459 79.4942 13.4947 79.4293 12.964 79.2001C12.4333 78.971 11.9813 78.5926 11.5962 78.0642C11.1252 77.3777 10.8882 76.7274 10.8884 76.0543Z" fill="white"/>
<path d="M8.07194 69.964L9.63294 69.2327L8.63715 67.0893L9.55703 66.6543L10.5528 68.7977L12.1739 68.046L11.0618 65.6484L12.0293 65.2042L13.7034 68.8009L7.66632 71.6073L5.99284 67.9988L6.94864 67.554L8.07194 69.964Z" fill="white"/>
<path d="M3.41376 59.6532L4.43144 59.377L4.90402 61.1499L10.3139 59.7152L10.6591 60.9972L5.24918 62.4319L5.72175 64.2049L4.70407 64.4811L3.41376 59.6532Z" fill="white"/>
<path d="M2.47363 49.5539L9.13102 49.5203L9.14295 50.8553L2.48556 50.8889L2.47363 49.5539Z" fill="white"/>
<path d="M10.0959 40.6332L9.88486 41.9445L4.95223 44.1723L9.42182 44.8955L9.21079 46.2068L2.63491 45.1466L2.84594 43.8353L7.81388 41.6094L3.30898 40.8843L3.52001 39.573L10.0959 40.6332Z" fill="white"/>
<path d="M8.54362 26.4977L9.48673 26.9615L8.66801 28.6063L13.6814 31.0945L13.087 32.2908L8.07364 29.8026L7.25555 31.4357L6.31244 30.972L8.54362 26.4977Z" fill="white"/>
<path d="M13.948 19.3708C14.4906 19.1518 15.0486 19.0872 15.6457 19.1781C16.2309 19.2685 16.7839 19.5224 17.2935 19.9276C17.8031 20.3327 18.1789 20.8133 18.4091 21.3689C18.6393 21.9244 18.7041 22.4828 18.6259 23.0691C18.5365 23.6429 18.3078 24.1739 17.9156 24.6725C17.5357 25.16 17.0686 25.5129 16.526 25.7318C15.9834 25.9508 15.4253 26.0154 14.8283 25.9244C14.243 25.8341 13.6901 25.5801 13.1687 25.1744C12.6591 24.7692 12.2833 24.2886 12.0643 23.7455C11.8341 23.19 11.7692 22.6315 11.8468 22.057C11.9362 21.4832 12.1656 20.9405 12.5572 20.4536C12.95 19.9432 13.4171 19.5903 13.948 19.3708ZM13.1041 22.1597C13.0625 22.4999 13.115 22.8452 13.2747 23.1726C13.4337 23.5117 13.6777 23.8082 14.0287 24.0867C14.3804 24.3535 14.7247 24.5373 15.087 24.6039C15.4487 24.6823 15.7924 24.6534 16.1176 24.5291C16.4428 24.4048 16.7136 24.1949 16.954 23.8889C17.1944 23.583 17.3413 23.2602 17.3829 22.92C17.4245 22.5797 17.3714 22.2462 17.2123 21.9071C17.0532 21.5679 16.8093 21.2715 16.4583 20.9929C16.1072 20.7143 15.7623 20.5424 15.4 20.4758C15.0383 20.3974 14.6945 20.4262 14.3693 20.5505C14.0441 20.6749 13.7616 20.8841 13.5212 21.1901C13.2926 21.4967 13.1457 21.8195 13.1041 22.1597Z" fill="white"/>
<path d="M18.8989 13.8972L21.3703 16.9225C21.7027 17.33 22.0327 17.5602 22.3839 17.6144C22.7233 17.668 23.0714 17.5567 23.4041 17.2911C23.7368 17.0255 23.9066 16.7157 23.9253 16.3625C23.9316 16.0204 23.775 15.6341 23.4537 15.239L20.9823 12.2137L22.0058 11.3828L24.4772 14.4081C24.8647 14.8894 25.111 15.3631 25.192 15.8398C25.2848 16.3171 25.2375 16.7633 25.0503 17.1784C24.8632 17.5935 24.5719 17.9676 24.1773 18.289C23.5603 18.7992 22.9117 19.0125 22.2429 18.9413C21.574 18.8701 20.9455 18.4822 20.358 17.7658L17.8866 14.7405L18.8989 13.8972Z" fill="white"/>
<path d="M30.6267 7.03726C31.3042 7.16796 31.8987 7.5304 32.3877 8.09976L31.1389 8.72968C30.8454 8.47781 30.5228 8.33066 30.1481 8.27519C29.7846 8.23213 29.4148 8.30682 29.027 8.49864C28.7117 8.6589 28.4757 8.88245 28.2953 9.16803C28.1268 9.45423 28.0505 9.78079 28.0553 10.1353C28.0595 10.5016 28.1697 10.8736 28.3727 11.2741C28.5645 11.6622 28.8078 11.9705 29.1032 12.187C29.3868 12.4029 29.6989 12.5259 30.0395 12.5559C30.3684 12.5853 30.6905 12.5199 31.0058 12.3596C31.3818 12.1672 31.6668 11.9108 31.8372 11.5893C32.0194 11.2684 32.0852 10.9177 32.0469 10.5259L33.2957 9.89601C33.4689 10.6374 33.421 11.3197 33.1166 11.9411C32.8235 12.5749 32.3012 13.0784 31.5616 13.4521C30.9917 13.7405 30.4305 13.864 29.8657 13.8338C29.3008 13.8036 28.78 13.6104 28.3138 13.2784C27.8364 12.9341 27.4593 12.477 27.1598 11.8941C26.8608 11.2995 26.7142 10.7249 26.7219 10.1348C26.7289 9.55659 26.8752 9.02122 27.1832 8.55353C27.48 8.07345 27.9249 7.69574 28.4948 7.40739C29.235 7.02187 29.938 6.89415 30.6267 7.03726Z" fill="white"/>
<path d="M40.8648 3.12142L42.5292 9.57533L41.2371 9.90772L40.5122 7.10571L37.7485 7.81993L38.4734 10.6219L37.1819 10.9425L35.5175 4.48864L36.8095 4.15625L37.4856 6.7667L40.237 6.06363L39.5609 3.45318L40.8648 3.12142Z" fill="white"/>
<path d="M49.2683 1.30985L50.1929 3.46124L52.4819 3.91431L50.7249 5.44994L50.991 7.77868L48.9891 6.5852L46.8724 7.5584L47.3829 5.2712L45.798 3.55683L48.1218 3.35047L49.2683 1.30985Z" fill="#F3764F"/>
</svg>
