<svg width="41" height="40" viewBox="0 0 41 40" fill="none" xmlns="http://www.w3.org/2000/svg">
<path d="M15.7497 35.0002C15.7497 35.8335 16.4163 36.6668 17.4163 36.6668H24.083C25.083 36.6668 25.7497 35.8335 25.7497 35.0002V33.3335H15.7497V35.0002ZM20.7497 3.3335C14.2497 3.3335 9.08301 8.50016 9.08301 15.0002C9.08301 19.0002 11.083 22.5002 14.083 24.5002V28.3335C14.083 29.1668 14.7497 30.0002 15.7497 30.0002H25.7497C26.7497 30.0002 27.4163 29.1668 27.4163 28.3335V24.5002C30.4163 22.3335 32.4163 18.8335 32.4163 15.0002C32.4163 8.50016 27.2497 3.3335 20.7497 3.3335Z" fill="white"/>
</svg>
