<svg width="16" height="16" viewBox="0 0 16 16" fill="none" xmlns="http://www.w3.org/2000/svg">
<path d="M8.00002 14.6667L7.61118 15.1236L8.00002 15.4545L8.38886 15.1236L8.00002 14.6667ZM3.99202 10.4247L4.48903 10.0885L4.4889 10.0883L3.99202 10.4247ZM12.0087 10.4247L12.5056 10.7609L12.5056 10.7609L12.0087 10.4247ZM11.7247 2.81666L11.3179 3.25768L11.318 3.25776L11.7247 2.81666ZM4.27535 2.81666L4.68209 3.25776L4.68218 3.25768L4.27535 2.81666ZM8.38886 14.2097C6.6232 12.7073 5.33077 11.3331 4.48903 10.0885L3.49501 10.7608C4.41949 12.1277 5.79906 13.5816 7.61118 15.1236L8.38886 14.2097ZM11.5118 10.0884C10.6695 11.3331 9.37685 12.7072 7.61118 14.2097L8.38886 15.1236C10.201 13.5816 11.5807 12.1278 12.5056 10.7609L11.5118 10.0884ZM12.7334 6.79999C12.7334 7.75078 12.3547 8.84251 11.5117 10.0885L12.5056 10.7609C13.4289 9.39614 13.9334 8.07143 13.9334 6.79999H12.7334ZM11.318 3.25776C12.2491 4.11638 12.7334 5.27461 12.7334 6.79999H13.9334C13.9334 4.99205 13.3451 3.49472 12.1314 2.37556L11.318 3.25776ZM8.00002 1.93333C9.25487 1.93333 10.3526 2.36723 11.3179 3.25768L12.1315 2.37565C10.9528 1.28832 9.56739 0.733328 8.00002 0.733328V1.93333ZM4.68218 3.25768C5.64746 2.36723 6.74517 1.93333 8.00002 1.93333V0.733328C6.43265 0.733328 5.04724 1.28832 3.86853 2.37565L4.68218 3.25768ZM3.26669 6.79999C3.26669 5.27461 3.75092 4.11638 4.68209 3.25776L3.86862 2.37556C2.6549 3.49472 2.06669 4.99205 2.06669 6.79999H3.26669ZM4.4889 10.0883C3.64554 8.84239 3.26669 7.7507 3.26669 6.79999H2.06669C2.06669 8.07151 2.57139 9.39627 3.49514 10.761L4.4889 10.0883ZM9.40002 6.66666C9.40002 7.43986 8.77322 8.06666 8.00002 8.06666V9.26666C9.43596 9.26666 10.6 8.1026 10.6 6.66666H9.40002ZM8.00002 5.26666C8.77322 5.26666 9.40002 5.89346 9.40002 6.66666H10.6C10.6 5.23072 9.43596 4.06666 8.00002 4.06666V5.26666ZM6.60002 6.66666C6.60002 5.89346 7.22682 5.26666 8.00002 5.26666V4.06666C6.56408 4.06666 5.40002 5.23072 5.40002 6.66666H6.60002ZM8.00002 8.06666C7.22682 8.06666 6.60002 7.43986 6.60002 6.66666H5.40002C5.40002 8.1026 6.56408 9.26666 8.00002 9.26666V8.06666Z" fill="#A0A6AD"/>
</svg>
