<svg width="220" height="40" viewBox="0 0 220 40" fill="none" xmlns="http://www.w3.org/2000/svg">
<path d="M0.139636 17.6259C0.0474267 18.4044 0 19.1967 0 20C1.89716 15.2998 8.55882 6.8777 20.0282 10.7914C11.455 14.728 -2.49272 25.5785 10.3023 37.4877C13.1821 39.0882 16.4985 40 20.0282 40C12.0313 40 14.9147 34.1604 17.6508 33.5971C18.6701 33.3873 20.0419 33.2835 21.6077 33.1652C28.589 32.6373 39.4253 31.8179 40.0564 20C35.4456 32.7338 19.8591 34.0969 16.5701 26.4748C14.1102 20.7739 18.6473 17.7903 23.3235 14.7153C25.9057 13.0173 28.5302 11.2914 30.0423 9.06475C31.5349 6.86688 28.1932 2.48848 26.296 0.998905C27.8883 6.6813 23.9696 6.77096 18.625 6.89325C12.1204 7.04208 3.50372 7.23924 0.139636 17.6259Z" fill="url(#paint0_linear_25_2152)"/>
<path d="M20.0282 40C31.0895 40 40.0564 31.0457 40.0564 20C39.4253 31.8179 28.589 32.6373 21.6077 33.1652C20.0419 33.2835 18.6701 33.3873 17.6508 33.5971C14.9147 34.1604 12.0313 40 20.0282 40Z" fill="#1964FF"/>
<path d="M40.0564 20C40.0564 11.1403 34.2875 3.62607 26.296 0.998905C28.1932 2.48848 31.5349 6.86688 30.0423 9.06475C28.5302 11.2914 25.9057 13.0173 23.3235 14.7153C18.6473 17.7903 14.1102 20.7739 16.5701 26.4748C19.8591 34.0969 35.4456 32.7338 40.0564 20Z" fill="#1964FF"/>
<path d="M20.0282 10.7914C8.55882 6.8777 1.89716 15.2998 0 20C0 27.521 4.15728 34.0724 10.3023 37.4877C-2.49272 25.5785 11.455 14.728 20.0282 10.7914Z" fill="#1964FF"/>
<path d="M20.0282 0C9.77138 0 1.31534 7.69924 0.139636 17.6259C3.50372 7.23924 12.1204 7.04208 18.625 6.89325C23.9696 6.77096 27.8883 6.6813 26.296 0.998905C24.3243 0.3507 22.2173 0 20.0282 0Z" fill="#1964FF"/>
<path d="M49.6566 13.8042C49.6566 11.5106 50.4985 9.54055 52.1824 7.89418C53.8593 6.24782 55.8744 5.42463 58.2276 5.42463C60.5527 5.42463 62.5466 6.25485 64.2094 7.91529C65.8792 9.57573 66.7142 11.5704 66.7142 13.8992C66.7142 16.2421 65.8757 18.2297 64.1989 19.862C62.5149 21.5013 60.4823 22.321 58.1008 22.321C55.9942 22.321 54.1024 21.5928 52.4255 20.1364C50.5796 18.5252 49.6566 16.4145 49.6566 13.8042ZM52.1402 13.8359C52.1402 15.637 52.7461 17.1181 53.958 18.279C55.1628 19.4399 56.5543 20.0203 58.1325 20.0203C59.8446 20.0203 61.289 19.4293 62.4656 18.2473C63.6422 17.0512 64.2306 15.5948 64.2306 13.8781C64.2306 12.1403 63.6493 10.6839 62.4868 9.50889C61.3313 8.32688 59.901 7.73588 58.1959 7.73588C56.4979 7.73588 55.0641 8.32688 53.8945 9.50889C52.725 10.6768 52.1402 12.1192 52.1402 13.8359Z" fill="white"/>
<path d="M69.8107 22.0255V4.62256L81.7109 17.0547V5.73069H84.1734V23.0175L72.2732 10.617V22.0255H69.8107Z" fill="white"/>
<path d="M97.0987 8.04193H90.5567V11.9573H96.9084V14.2686H90.5567V19.7142H97.0987V22.0255H88.0943V5.73069H97.0987V8.04193Z" fill="white"/>
<path d="M112.391 6.60664V9.51944C110.968 8.3304 109.496 7.73588 107.974 7.73588C106.297 7.73588 104.884 8.33744 103.736 9.54055C102.58 10.7366 102.002 12.2001 102.002 13.9309C102.002 15.6405 102.58 17.0829 103.736 18.2578C104.891 19.4328 106.307 20.0203 107.984 20.0203C108.851 20.0203 109.587 19.8796 110.193 19.5982C110.531 19.4574 110.88 19.2675 111.239 19.0283C111.606 18.789 111.99 18.5006 112.391 18.1629V21.1284C110.982 21.9235 109.503 22.321 107.953 22.321C105.62 22.321 103.63 21.5084 101.981 19.8831C100.34 18.2438 99.5189 16.2667 99.5189 13.952C99.5189 11.8764 100.206 10.026 101.58 8.40076C103.271 6.40964 105.458 5.41408 108.143 5.41408C109.608 5.41408 111.024 5.8116 112.391 6.60664Z" fill="white"/>
<path d="M114.59 13.8042C114.59 11.5106 115.432 9.54055 117.115 7.89418C118.792 6.24782 120.807 5.42463 123.161 5.42463C125.486 5.42463 127.48 6.25485 129.142 7.91529C130.812 9.57573 131.647 11.5704 131.647 13.8992C131.647 16.2421 130.809 18.2297 129.132 19.862C127.448 21.5013 125.415 22.321 123.034 22.321C120.927 22.321 119.035 21.5928 117.359 20.1364C115.513 18.5252 114.59 16.4145 114.59 13.8042ZM117.073 13.8359C117.073 15.637 117.679 17.1181 118.891 18.279C120.096 19.4399 121.487 20.0203 123.066 20.0203C124.778 20.0203 126.222 19.4293 127.399 18.2473C128.575 17.0512 129.164 15.5948 129.164 13.8781C129.164 12.1403 128.582 10.6839 127.42 9.50889C126.264 8.32688 124.834 7.73588 123.129 7.73588C121.431 7.73588 119.997 8.32688 118.828 9.50889C117.658 10.6768 117.073 12.1192 117.073 13.8359Z" fill="white"/>
<path d="M134.744 22.0255V4.62256L146.644 17.0547V5.73069H149.106V23.0175L137.206 10.617V22.0255H134.744Z" fill="white"/>
<path d="M153.027 22.0255V4.62256L164.927 17.0547V5.73069H167.39V23.0175L155.49 10.617V22.0255H153.027Z" fill="white"/>
<path d="M180.315 8.04193H173.773V11.9573H180.125V14.2686H173.773V19.7142H180.315V22.0255H171.311V5.73069H180.315V8.04193Z" fill="white"/>
<path d="M195.608 6.60664V9.51944C194.185 8.3304 192.712 7.73588 191.19 7.73588C189.513 7.73588 188.101 8.33744 186.952 9.54055C185.797 10.7366 185.219 12.2001 185.219 13.9309C185.219 15.6405 185.797 17.0829 186.952 18.2578C188.108 19.4328 189.524 20.0203 191.201 20.0203C192.067 20.0203 192.804 19.8796 193.41 19.5982C193.748 19.4574 194.097 19.2675 194.456 19.0283C194.822 18.789 195.206 18.5006 195.608 18.1629V21.1284C194.199 21.9235 192.719 22.321 191.169 22.321C188.837 22.321 186.847 21.5084 185.198 19.8831C183.556 18.2438 182.735 16.2667 182.735 13.952C182.735 11.8764 183.422 10.026 184.796 8.40076C186.487 6.40964 188.675 5.41408 191.359 5.41408C192.825 5.41408 194.241 5.8116 195.608 6.60664Z" fill="white"/>
<path d="M203.228 8.04193V22.0255H200.765V8.04193H197.013V5.73069H206.969V8.04193H203.228Z" fill="white"/>
<path d="M211.989 19.7142H219.82V22.0255H207.941L215.952 8.04193H209.252V5.73069H220L211.989 19.7142Z" fill="white"/>
<path d="M53.591 29.6694L52.8083 30.1326C52.6619 29.8789 52.5225 29.7135 52.39 29.6363C52.2519 29.5481 52.0738 29.504 51.8557 29.504C51.5879 29.504 51.3656 29.5798 51.1889 29.7314C51.0122 29.8803 50.9239 30.0678 50.9239 30.2939C50.9239 30.6054 51.1558 30.8563 51.6196 31.0466L52.2574 31.3071C52.7765 31.5167 53.1561 31.7731 53.3964 32.0763C53.6366 32.3769 53.7567 32.7463 53.7567 33.1847C53.7567 33.772 53.5606 34.2572 53.1686 34.6405C52.7737 35.0265 52.2837 35.2195 51.6983 35.2195C51.1434 35.2195 50.685 35.0554 50.3234 34.7273C49.9672 34.3992 49.7449 33.9374 49.6566 33.3419L50.634 33.1268C50.6781 33.5018 50.7555 33.7609 50.8659 33.9043C51.0647 34.18 51.3546 34.3179 51.7356 34.3179C52.0366 34.3179 52.2864 34.2172 52.4852 34.016C52.684 33.8147 52.7834 33.5597 52.7834 33.2509C52.7834 33.1268 52.7655 33.0138 52.7296 32.9118C52.6964 32.807 52.6426 32.7119 52.5681 32.6264C52.4963 32.5382 52.4024 32.4568 52.2864 32.3824C52.1705 32.3052 52.0324 32.2321 51.8723 32.1632L51.2552 31.9068C50.38 31.5373 49.9423 30.9969 49.9423 30.2856C49.9423 29.8059 50.1259 29.4047 50.4932 29.0821C50.8604 28.7568 51.3173 28.5941 51.864 28.5941C52.6012 28.5941 53.1769 28.9525 53.591 29.6694Z" fill="white"/>
<path d="M59.3535 29.6239V35.1037H58.3885V29.6239H56.9183V28.7182H60.8196V29.6239H59.3535Z" fill="white"/>
<path d="M67.634 33.5528H64.8965L64.1842 35.1037H63.1446L66.3088 28.317L69.361 35.1037H68.305L67.634 33.5528ZM67.2406 32.6471L66.2922 30.4758L65.2982 32.6471H67.2406Z" fill="white"/>
<path d="M75.9022 29.6239H73.674V31.1582H75.8235V32.0639H73.674V35.1037H72.709V28.7182H75.9022V29.6239Z" fill="white"/>
<path d="M82.7621 29.6239H80.534V31.1582H82.6835V32.0639H80.534V35.1037H79.569V28.7182H82.7621V29.6239Z" fill="white"/>
<path d="M87.394 28.7182V35.1037H86.429V28.7182H87.394Z" fill="white"/>
<path d="M91.4751 35.1037V28.2839L96.1384 33.1558V28.7182H97.1034V35.4924L92.44 30.633V35.1037H91.4751Z" fill="white"/>
<path d="M104.539 31.7786H107.181V31.9895C107.181 32.4692 107.125 32.8938 107.012 33.2633C106.901 33.6052 106.715 33.925 106.452 34.2228C105.859 34.89 105.104 35.2236 104.187 35.2236C103.292 35.2236 102.526 34.901 101.888 34.2558C101.251 33.6079 100.932 32.8304 100.932 31.9233C100.932 30.9969 101.256 30.2112 101.905 29.566C102.554 28.9181 103.344 28.5941 104.274 28.5941C104.774 28.5941 105.24 28.6961 105.674 28.9002C106.088 29.1042 106.495 29.435 106.896 29.8927L106.208 30.5503C105.683 29.8527 105.044 29.504 104.291 29.504C103.614 29.504 103.047 29.7369 102.588 30.2029C102.13 30.6606 101.901 31.2341 101.901 31.9233C101.901 32.6347 102.156 33.2206 102.667 33.681C103.145 34.1083 103.662 34.322 104.22 34.322C104.695 34.322 105.122 34.1621 105.5 33.8423C105.878 33.5197 106.089 33.1337 106.134 32.6843H104.539V31.7786Z" fill="white"/>
<path d="M118.619 31.5511L119.771 32.9407L119.808 32.8993C119.932 32.7642 120.05 32.6319 120.16 32.5023C120.27 32.3727 120.377 32.2418 120.479 32.1094L121.108 32.7546C121.031 32.8649 120.929 32.9931 120.802 33.1392C120.678 33.2853 120.529 33.4535 120.355 33.6438L121.539 35.1037H120.338L119.7 34.322C119.115 34.9258 118.506 35.2277 117.874 35.2277C117.308 35.2277 116.827 35.0471 116.433 34.686C116.046 34.322 115.853 33.8726 115.853 33.3377C115.853 32.7008 116.159 32.1715 116.772 31.7496L117.191 31.4643C117.196 31.4615 117.206 31.4546 117.22 31.4436C117.233 31.4326 117.253 31.4174 117.278 31.3981C116.855 30.9487 116.644 30.5062 116.644 30.0705C116.644 29.6404 116.785 29.2903 117.066 29.0201C117.353 28.7499 117.723 28.6148 118.176 28.6148C118.615 28.6148 118.978 28.7458 119.265 29.0077C119.553 29.2696 119.696 29.6005 119.696 30.0002C119.696 30.276 119.617 30.5255 119.46 30.7488C119.305 30.9721 119.025 31.2396 118.619 31.5511ZM117.853 32.0929L117.799 32.1301C117.405 32.4031 117.135 32.6223 116.992 32.7877C116.851 32.9531 116.781 33.1282 116.781 33.3129C116.781 33.5776 116.887 33.8202 117.099 34.0408C117.32 34.2531 117.563 34.3592 117.828 34.3592C118.201 34.3592 118.63 34.1152 119.116 33.6272L117.853 32.0929ZM118.06 30.8729L118.139 30.815C118.274 30.713 118.386 30.6247 118.474 30.5503C118.563 30.4731 118.626 30.4083 118.665 30.3559C118.748 30.2539 118.789 30.1284 118.789 29.9796C118.789 29.8114 118.733 29.6749 118.619 29.5701C118.506 29.4654 118.354 29.413 118.164 29.413C117.99 29.413 117.844 29.4667 117.725 29.5743C117.606 29.6763 117.547 29.8072 117.547 29.9672C117.547 30.1546 117.621 30.3394 117.77 30.5213L118.011 30.8108C118.019 30.8246 118.035 30.8453 118.06 30.8729Z" fill="white"/>
<path d="M129.697 31.882C129.697 30.9832 130.027 30.2112 130.687 29.566C131.344 28.9208 132.134 28.5982 133.056 28.5982C133.967 28.5982 134.748 28.9236 135.4 29.5743C136.054 30.2249 136.381 31.0066 136.381 31.9192C136.381 32.8373 136.053 33.6162 135.396 34.2558C134.736 34.8983 133.939 35.2195 133.006 35.2195C132.181 35.2195 131.439 34.9341 130.782 34.3634C130.059 33.732 129.697 32.9049 129.697 31.882ZM130.67 31.8944C130.67 32.6002 130.908 33.1806 131.383 33.6355C131.855 34.0904 132.4 34.3179 133.019 34.3179C133.689 34.3179 134.255 34.0863 134.717 33.6231C135.178 33.1544 135.408 32.5837 135.408 31.9109C135.408 31.2299 135.18 30.6592 134.725 30.1988C134.272 29.7356 133.712 29.504 133.043 29.504C132.378 29.504 131.816 29.7356 131.358 30.1988C130.899 30.6564 130.67 31.2216 130.67 31.8944Z" fill="white"/>
<path d="M141.104 28.7182V32.5644C141.104 33.113 141.194 33.5142 141.374 33.7678C141.641 34.1345 142.018 34.3179 142.504 34.3179C142.993 34.3179 143.371 34.1345 143.639 33.7678C143.819 33.5225 143.908 33.1213 143.908 32.5644V28.7182H144.873V32.829C144.873 33.5018 144.663 34.056 144.244 34.4916C143.772 34.9768 143.192 35.2195 142.504 35.2195C141.817 35.2195 141.238 34.9768 140.769 34.4916C140.349 34.056 140.139 33.5018 140.139 32.829V28.7182H141.104Z" fill="white"/>
<path d="M150.719 29.6239V35.1037H149.754V29.6239H148.283V28.7182H152.185V29.6239H150.719Z" fill="white"/>
<path d="M159.198 29.6694L158.415 30.1326C158.269 29.8789 158.129 29.7135 157.997 29.6363C157.859 29.5481 157.681 29.504 157.463 29.504C157.195 29.504 156.972 29.5798 156.796 29.7314C156.619 29.8803 156.531 30.0678 156.531 30.2939C156.531 30.6054 156.763 30.8563 157.227 31.0466L157.864 31.3071C158.383 31.5167 158.763 31.7731 159.003 32.0763C159.243 32.3769 159.364 32.7463 159.364 33.1847C159.364 33.772 159.167 34.2572 158.775 34.6405C158.381 35.0265 157.891 35.2195 157.305 35.2195C156.75 35.2195 156.292 35.0554 155.93 34.7273C155.574 34.3992 155.352 33.9374 155.263 33.3419L156.241 33.1268C156.285 33.5018 156.362 33.7609 156.473 33.9043C156.672 34.18 156.961 34.3179 157.342 34.3179C157.643 34.3179 157.893 34.2172 158.092 34.016C158.291 33.8147 158.39 33.5597 158.39 33.2509C158.39 33.1268 158.372 33.0138 158.336 32.9118C158.303 32.807 158.249 32.7119 158.175 32.6264C158.103 32.5382 158.009 32.4568 157.893 32.3824C157.777 32.3052 157.639 32.2321 157.479 32.1632L156.862 31.9068C155.987 31.5373 155.549 30.9969 155.549 30.2856C155.549 29.8059 155.733 29.4047 156.1 29.0821C156.467 28.7568 156.924 28.5941 157.471 28.5941C158.208 28.5941 158.784 28.9525 159.198 29.6694Z" fill="white"/>
<path d="M162.753 31.882C162.753 30.9832 163.083 30.2112 163.743 29.566C164.4 28.9208 165.19 28.5982 166.112 28.5982C167.023 28.5982 167.804 28.9236 168.456 29.5743C169.11 30.2249 169.437 31.0066 169.437 31.9192C169.437 32.8373 169.109 33.6162 168.452 34.2558C167.792 34.8983 166.995 35.2195 166.062 35.2195C165.236 35.2195 164.495 34.9341 163.838 34.3634C163.115 33.732 162.753 32.9049 162.753 31.882ZM163.726 31.8944C163.726 32.6002 163.964 33.1806 164.439 33.6355C164.911 34.0904 165.456 34.3179 166.074 34.3179C166.745 34.3179 167.311 34.0863 167.772 33.6231C168.234 33.1544 168.464 32.5837 168.464 31.9109C168.464 31.2299 168.236 30.6592 167.781 30.1988C167.328 29.7356 166.767 29.504 166.099 29.504C165.434 29.504 164.872 29.7356 164.414 30.1988C163.955 30.6564 163.726 31.2216 163.726 31.8944Z" fill="white"/>
<path d="M174.16 28.7182V32.5644C174.16 33.113 174.25 33.5142 174.43 33.7678C174.697 34.1345 175.074 34.3179 175.56 34.3179C176.049 34.3179 176.427 34.1345 176.695 33.7678C176.874 33.5225 176.964 33.1213 176.964 32.5644V28.7182H177.929V32.829C177.929 33.5018 177.719 34.056 177.3 34.4916C176.827 34.9768 176.248 35.2195 175.56 35.2195C174.873 35.2195 174.294 34.9768 173.825 34.4916C173.405 34.056 173.195 33.5018 173.195 32.829V28.7182H174.16Z" fill="white"/>
<path d="M184.176 32.3824L186.156 35.1037H184.975L183.149 32.4899H182.975V35.1037H182.01V28.7182H183.141C183.986 28.7182 184.596 28.8767 184.971 29.1938C185.385 29.5467 185.593 30.0126 185.593 30.5916C185.593 31.0438 185.463 31.4326 185.203 31.7579C184.944 32.0832 184.601 32.2914 184.176 32.3824ZM182.975 31.6504H183.282C184.195 31.6504 184.652 31.3016 184.652 30.604C184.652 29.9506 184.208 29.6239 183.319 29.6239H182.975V31.6504Z" fill="white"/>
<path d="M194.242 29.0614V30.2029C193.684 29.7369 193.107 29.504 192.511 29.504C191.853 29.504 191.3 29.7397 190.85 30.2112C190.397 30.6799 190.171 31.2533 190.171 31.9316C190.171 32.6016 190.397 33.1668 190.85 33.6272C191.303 34.0877 191.858 34.3179 192.515 34.3179C192.854 34.3179 193.143 34.2627 193.38 34.1525C193.513 34.0973 193.649 34.0229 193.79 33.9291C193.934 33.8354 194.084 33.7223 194.242 33.59V34.7521C193.689 35.0637 193.11 35.2195 192.502 35.2195C191.588 35.2195 190.808 34.901 190.162 34.2641C189.519 33.6217 189.197 32.847 189.197 31.9399C189.197 31.1265 189.467 30.4014 190.005 29.7645C190.668 28.9842 191.525 28.5941 192.577 28.5941C193.151 28.5941 193.706 28.7499 194.242 29.0614Z" fill="white"/>
<path d="M198.973 28.7182V35.1037H198.008V28.7182H198.973Z" fill="white"/>
<path d="M203.054 35.1037V28.2839L207.717 33.1558V28.7182H208.682V35.4924L204.019 30.633V35.1037H203.054Z" fill="white"/>
<path d="M216.118 31.7786H218.76V31.9895C218.76 32.4692 218.704 32.8938 218.59 33.2633C218.48 33.6052 218.294 33.925 218.031 34.2228C217.438 34.89 216.683 35.2236 215.766 35.2236C214.871 35.2236 214.105 34.901 213.467 34.2558C212.83 33.6079 212.511 32.8304 212.511 31.9233C212.511 30.9969 212.835 30.2112 213.484 29.566C214.133 28.9181 214.922 28.5941 215.853 28.5941C216.353 28.5941 216.819 28.6961 217.253 28.9002C217.667 29.1042 218.074 29.435 218.474 29.8927L217.787 30.5503C217.262 29.8527 216.623 29.504 215.869 29.504C215.193 29.504 214.626 29.7369 214.167 30.2029C213.709 30.6606 213.48 31.2341 213.48 31.9233C213.48 32.6347 213.735 33.2206 214.246 33.681C214.724 34.1083 215.241 34.322 215.799 34.322C216.274 34.322 216.701 34.1621 217.079 33.8423C217.457 33.5197 217.668 33.1337 217.712 32.6843H216.118V31.7786Z" fill="white"/>
<defs>
<linearGradient id="paint0_linear_25_2152" x1="20.0282" y1="0" x2="20.0282" y2="40" gradientUnits="userSpaceOnUse">
<stop stop-color="#43FFFF"/>
<stop offset="1" stop-color="#20D7FF"/>
</linearGradient>
</defs>
</svg>
