<svg width="16" height="20" viewBox="0 0 16 20" fill="none" xmlns="http://www.w3.org/2000/svg">
<path d="M7.9671 0.494507C5.96822 0.496865 4.05189 1.29196 2.63846 2.70538C1.22504 4.1188 0.429948 6.03514 0.42759 8.03401C0.425196 9.6675 0.958769 11.2567 1.94646 12.5577C1.94646 12.5577 2.15208 12.8285 2.18567 12.8675L7.9671 19.686L13.7513 12.8641C13.7814 12.8278 13.9877 12.5577 13.9877 12.5577L13.9884 12.5557C14.9756 11.2552 15.5089 9.66675 15.5066 8.03401C15.5042 6.03514 14.7091 4.1188 13.2957 2.70538C11.8823 1.29196 9.96597 0.496865 7.9671 0.494507ZM7.9671 10.7757C7.42485 10.7757 6.89478 10.6149 6.44392 10.3136C5.99306 10.0123 5.64166 9.58416 5.43415 9.08319C5.22664 8.58222 5.17235 8.03097 5.27814 7.49915C5.38392 6.96732 5.64504 6.47881 6.02846 6.09538C6.41189 5.71196 6.9004 5.45084 7.43223 5.34505C7.96406 5.23927 8.51531 5.29356 9.01628 5.50107C9.51725 5.70858 9.94543 6.05998 10.2467 6.51084C10.5479 6.9617 10.7087 7.49177 10.7087 8.03401C10.7078 8.76086 10.4187 9.45768 9.90473 9.97164C9.39077 10.4856 8.69395 10.7747 7.9671 10.7757Z" fill="white"/>
</svg>
