<svg width="18" height="17" viewBox="0 0 18 17" fill="none" xmlns="http://www.w3.org/2000/svg">
<path d="M9.88072 4.43398C11.8026 4.43398 12.6224 5.25373 12.6224 7.17562H14.4501C14.4501 4.22836 12.828 2.60623 9.88072 2.60623V4.43398ZM13.008 9.40823C12.8324 9.24862 12.6017 9.1635 12.3645 9.17083C12.1273 9.17817 11.9022 9.27738 11.7368 9.44753L9.5499 11.6966C9.0235 11.5961 7.96523 11.2661 6.87589 10.1795C5.78654 9.08929 5.45663 8.02827 5.35885 7.50553L7.60608 5.31771C7.77643 5.15241 7.8758 4.92732 7.88313 4.69006C7.89046 4.4528 7.8052 4.222 7.64537 4.0465L4.26859 0.333407C4.1087 0.157354 3.88648 0.0505648 3.64912 0.0357192C3.41176 0.0208737 3.17796 0.0991412 2.99738 0.253899L1.01426 1.95463C0.856263 2.1132 0.761958 2.32425 0.749237 2.54774C0.735529 2.77621 0.47416 8.1882 4.6707 12.3866C8.3317 16.0467 12.9175 16.3144 14.1805 16.3144C14.3651 16.3144 14.4785 16.3089 14.5086 16.3071C14.7321 16.2946 14.943 16.1999 15.1008 16.0412L16.8006 14.0571C16.9555 13.8767 17.0339 13.6429 17.0192 13.4056C17.0046 13.1682 16.8979 12.9459 16.722 12.7859L13.008 9.40823Z" fill="white"/>
</svg>
