<svg width="41" height="40" viewBox="0 0 41 40" fill="none" xmlns="http://www.w3.org/2000/svg">
<path d="M29.933 15.8832L18.1497 27.6665L11.083 20.5998L13.433 18.2498L18.1497 22.9665L27.583 13.5332L29.933 15.8832ZM7.16634 19.9998C7.16634 16.1165 8.86634 12.6332 11.533 10.1998L15.4997 14.1665V4.1665H5.49967L9.16634 7.83317C5.89967 10.8665 3.83301 15.1832 3.83301 19.9998C3.83301 28.6498 10.4163 35.7498 18.833 36.5832V33.2165C12.2663 32.3998 7.16634 26.7832 7.16634 19.9998ZM37.1663 19.9998C37.1663 11.3498 30.583 4.24984 22.1663 3.4165V6.78317C28.733 7.59984 33.833 13.2165 33.833 19.9998C33.833 23.8832 32.133 27.3665 29.4663 29.7998L25.4997 25.8332V35.8332H35.4997L31.833 32.1665C35.0997 29.1332 37.1663 24.8165 37.1663 19.9998Z" fill="white"/>
</svg>
