<svg width="16" height="16" viewBox="0 0 16 16" fill="none" xmlns="http://www.w3.org/2000/svg">
<g clip-path="url(#clip0_112_5035)">
<path d="M12.6667 2.66666H12V1.33333L10.6667 1.33333V2.66666L5.33333 2.66666V1.33333L4 1.33333V2.66666H3.33333C2.59333 2.66666 2.00667 3.26666 2.00667 3.99999L2 13.3333C2 14.0667 2.59333 14.6667 3.33333 14.6667L12.6667 14.6667C13.4 14.6667 14 14.0667 14 13.3333L14 3.99999C14 3.26666 13.4 2.66666 12.6667 2.66666ZM12.6667 13.3333L3.33333 13.3333L3.33333 6.66666L12.6667 6.66666L12.6667 13.3333ZM12.6667 5.33333L3.33333 5.33333L3.33333 3.99999L12.6667 3.99999V5.33333ZM6 9.33333H4.66667L4.66667 8L6 8V9.33333ZM8.66667 9.33333L7.33333 9.33333V8H8.66667V9.33333ZM11.3333 9.33333H10V8L11.3333 8V9.33333ZM6 12H4.66667V10.6667H6V12ZM8.66667 12L7.33333 12V10.6667L8.66667 10.6667V12ZM11.3333 12H10V10.6667H11.3333V12Z" fill="#A0A6AD"/>
</g>
<defs>
<clipPath id="clip0_112_5035">
<rect width="16" height="16" fill="white"/>
</clipPath>
</defs>
</svg>
