<svg width="41" height="40" viewBox="0 0 41 40" fill="none" xmlns="http://www.w3.org/2000/svg">
<path d="M7.41634 6.6665C6.53229 6.6665 5.68444 7.01769 5.05932 7.64281C4.4342 8.26794 4.08301 9.11578 4.08301 9.99984V16.6665C4.96706 16.6665 5.81491 17.0177 6.44003 17.6428C7.06515 18.2679 7.41634 19.1158 7.41634 19.9998C7.41634 20.8839 7.06515 21.7317 6.44003 22.3569C5.81491 22.982 4.96706 23.3332 4.08301 23.3332V29.9998C4.08301 30.8839 4.4342 31.7317 5.05932 32.3569C5.68444 32.982 6.53229 33.3332 7.41634 33.3332H34.083C34.9671 33.3332 35.8149 32.982 36.44 32.3569C37.0652 31.7317 37.4163 30.8839 37.4163 29.9998V23.3332C36.5323 23.3332 35.6844 22.982 35.0593 22.3569C34.4342 21.7317 34.083 20.8839 34.083 19.9998C34.083 19.1158 34.4342 18.2679 35.0593 17.6428C35.6844 17.0177 36.5323 16.6665 37.4163 16.6665V9.99984C37.4163 9.11578 37.0652 8.26794 36.44 7.64281C35.8149 7.01769 34.9671 6.6665 34.083 6.6665H7.41634ZM26.583 11.6665L29.083 14.1665L14.9163 28.3332L12.4163 25.8332L26.583 11.6665ZM15.433 11.7332C17.0663 11.7332 18.383 13.0498 18.383 14.6832C18.383 15.4656 18.0722 16.2159 17.519 16.7691C16.9657 17.3224 16.2154 17.6332 15.433 17.6332C13.7997 17.6332 12.483 16.3165 12.483 14.6832C12.483 13.9008 12.7938 13.1504 13.347 12.5972C13.9003 12.044 14.6506 11.7332 15.433 11.7332M26.0663 22.3665C27.6997 22.3665 29.0163 23.6832 29.0163 25.3165C29.0163 26.0989 28.7055 26.8492 28.1523 27.4025C27.5991 27.9557 26.8487 28.2665 26.0663 28.2665C24.433 28.2665 23.1163 26.9498 23.1163 25.3165C23.1163 24.5341 23.4271 23.7838 23.9804 23.2305C24.5336 22.6773 25.284 22.3665 26.0663 22.3665V22.3665Z" fill="white"/>
</svg>
